<svg width="16" height="16" viewBox="0 0 16 16" fill="none" xmlns="http://www.w3.org/2000/svg">
<path d="M7.08808 0C6.08964 0 5.13209 0.396628 4.42609 1.10263C3.72009 1.80863 3.32346 2.76618 3.32346 3.76461C3.32346 4.76305 3.72009 5.7206 4.42609 6.4266C5.13209 7.1326 6.08964 7.52923 7.08808 7.52923C8.08651 7.52923 9.04406 7.1326 9.75006 6.4266C10.4561 5.7206 10.8527 4.76305 10.8527 3.76461C10.8527 2.76618 10.4561 1.80863 9.75006 1.10263C9.04406 0.396628 8.08651 0 7.08808 0ZM2.39078 8.47038C2.14291 8.46939 1.89729 8.51734 1.66799 8.61148C1.4387 8.70562 1.23025 8.8441 1.05458 9.01897C0.878922 9.19385 0.739509 9.40168 0.644341 9.63055C0.549173 9.85942 0.500122 10.1048 0.5 10.3527C0.5 11.9442 1.28398 13.1442 2.50936 13.9263C3.49757 14.5559 4.76625 14.9135 6.15163 15.0227C6.16104 14.9267 6.1761 14.8298 6.20057 14.7319L6.5535 13.322C6.68524 12.793 6.95854 12.3099 7.34407 11.9244L10.7981 8.47038H2.39172H2.39078ZM8.00946 12.5898L12.5552 8.04404C12.8855 7.71393 13.3333 7.52853 13.8002 7.52862C14.2672 7.5287 14.7149 7.71428 15.0451 8.04451C15.3752 8.37474 15.5606 8.82259 15.5605 9.28952C15.5604 9.75645 15.3748 10.2042 15.0446 10.5343L10.4988 15.0792C10.234 15.3441 9.9022 15.5321 9.53884 15.6231L8.12899 15.9751C7.9888 16.0101 7.84196 16.0082 7.70274 15.9696C7.56351 15.931 7.43663 15.8571 7.33442 15.7549C7.23222 15.6528 7.15816 15.526 7.11945 15.3868C7.08073 15.2476 7.07868 15.1008 7.11349 14.9606L7.46642 13.5507C7.55669 13.1871 7.74482 12.8551 8.01041 12.5908L8.00946 12.5898Z" fill="#007580"/>
</svg>
