<svg width="103" height="30" viewBox="0 0 103 30" fill="none" xmlns="http://www.w3.org/2000/svg">
<rect width="102.5" height="30" rx="4" fill="black"/>
<path d="M35.1997 7.60296C35.2136 7.88575 35.1702 8.16843 35.0722 8.43379C34.9741 8.69915 34.8235 8.94164 34.6294 9.1465C34.4119 9.37366 34.1492 9.55202 33.8585 9.66991C33.5679 9.78779 33.2557 9.84256 32.9426 9.83061C32.6275 9.83345 32.315 9.77283 32.0234 9.6523C31.7319 9.53178 31.4672 9.35379 31.245 9.12879C31.0227 8.90379 30.8474 8.63632 30.7293 8.3421C30.6112 8.04789 30.5526 7.73286 30.5571 7.41554C30.5527 7.09821 30.6112 6.78319 30.7293 6.48897C30.8475 6.19474 31.0228 5.92727 31.245 5.70224C31.4673 5.47722 31.7319 5.29919 32.0234 5.17861C32.315 5.05803 32.6275 4.99733 32.9426 5.00009C33.2666 4.9991 33.5874 5.06507 33.8851 5.19391C34.1615 5.30676 34.4076 5.48378 34.6033 5.71055L34.1997 6.1173C34.0459 5.93501 33.8525 5.79073 33.6346 5.69561C33.4166 5.60048 33.1799 5.55706 32.9426 5.56868C32.7038 5.56743 32.4672 5.61474 32.2469 5.70777C32.0267 5.80079 31.8273 5.93762 31.6608 6.11006C31.4943 6.28251 31.3641 6.48701 31.278 6.71133C31.1918 6.93565 31.1515 7.17517 31.1595 7.41554C31.1538 7.77559 31.2544 8.12923 31.4486 8.43162C31.6427 8.73401 31.9217 8.97153 32.25 9.11406C32.5784 9.25659 32.9414 9.29772 33.2931 9.23222C33.6447 9.16672 33.9691 8.99754 34.2251 8.74615C34.4607 8.49048 34.5973 8.15808 34.61 7.8095H32.9426V7.25409H35.1675C35.1886 7.36918 35.1993 7.48594 35.1997 7.60296Z" fill="white" stroke="white" stroke-width="0.2" stroke-miterlimit="10"/>
<path d="M38.6354 5.74613H36.5873V7.15051H38.4341V7.68265H36.5873V9.08703H38.6354V9.63134H36.0098V5.20181H38.6354V5.74613Z" fill="white" stroke="white" stroke-width="0.2" stroke-miterlimit="10"/>
<path d="M41.0377 9.63134H40.4708V5.74613H39.2395V5.20181H42.2691V5.74613H41.0377V9.63134Z" fill="white" stroke="white" stroke-width="0.2" stroke-miterlimit="10"/>
<path d="M44.4929 9.63134V5.20181H45.0988V9.63134H44.4929Z" fill="white" stroke="white" stroke-width="0.2" stroke-miterlimit="10"/>
<path d="M47.6202 9.63134H47.0155V5.74613H45.7021V5.20181H48.9337V5.74613H47.6202V9.63134Z" fill="white" stroke="white" stroke-width="0.2" stroke-miterlimit="10"/>
<path d="M54.7324 9.13129C54.2926 9.58016 53.6969 9.83222 53.0759 9.83222C52.4548 9.83222 51.8591 9.58016 51.4193 9.13129C51.2018 8.9057 51.0307 8.63762 50.9164 8.343C50.802 8.04838 50.7467 7.73324 50.7538 7.4163C50.7467 7.09936 50.802 6.78422 50.9164 6.4896C51.0307 6.19498 51.2018 5.9269 51.4193 5.70131C51.6367 5.47872 51.8948 5.3022 52.1789 5.18186C52.463 5.06152 52.7675 4.99972 53.075 5C53.3825 5.00028 53.6868 5.06263 53.9707 5.18349C54.2546 5.30434 54.5125 5.48133 54.7294 5.70431C54.9472 5.92931 55.1185 6.19679 55.2334 6.49087C55.3482 6.78496 55.4042 7.09966 55.3979 7.4163C55.4048 7.73321 55.3494 8.0483 55.2351 8.3429C55.1207 8.63749 54.9498 8.90558 54.7324 9.13129ZM51.848 8.74398C52.1738 9.07686 52.6152 9.26382 53.0755 9.26382C53.5357 9.26382 53.9772 9.07686 54.3029 8.74398C54.4699 8.56892 54.6006 8.36101 54.6869 8.13281C54.7732 7.90461 54.8135 7.66087 54.8052 7.4163C54.8135 7.17173 54.7732 6.92799 54.6869 6.69979C54.6006 6.47159 54.4699 6.26368 54.3029 6.08862C53.9772 5.75574 53.5357 5.56878 53.0755 5.56878C52.6152 5.56878 52.1738 5.75574 51.848 6.08862C51.6813 6.26382 51.5508 6.47177 51.4646 6.69995C51.3784 6.92812 51.3383 7.1718 51.3465 7.4163C51.3383 7.6608 51.3784 7.90448 51.4646 8.13265C51.5508 8.36083 51.6813 8.56878 51.848 8.74398Z" fill="white" stroke="white" stroke-width="0.2" stroke-miterlimit="10"/>
<path d="M56.2061 9.63134V5.20181H56.9026L59.0669 8.64762H59.0916L59.0669 7.79397V5.20181H59.6396V9.63134H59.0423L56.7779 6.01862H56.7533L56.7779 6.87226V9.63134H56.2061Z" fill="white" stroke="white" stroke-width="0.2" stroke-miterlimit="10"/>
<path d="M50.6225 16.2116C49.9938 16.214 49.3798 16.4048 48.8582 16.7599C48.3365 17.115 47.9306 17.6184 47.6916 18.2067C47.4527 18.795 47.3914 19.4417 47.5155 20.0652C47.6396 20.6887 47.9436 21.261 48.3891 21.7098C48.8345 22.1587 49.4015 22.464 50.0183 22.5872C50.6352 22.7104 51.2743 22.6459 51.855 22.402C52.4356 22.158 52.9318 21.7455 53.2809 21.2165C53.63 20.6875 53.8163 20.0658 53.8163 19.4298C53.8224 19.0044 53.744 18.5821 53.5855 18.188C53.427 17.794 53.1918 17.4361 52.8938 17.1359C52.5959 16.8356 52.2412 16.5991 51.851 16.4403C51.4608 16.2815 51.043 16.2037 50.6225 16.2116ZM50.6225 21.3803C50.2353 21.4082 49.8487 21.3176 49.5132 21.1202C49.1776 20.9228 48.9085 20.6277 48.741 20.2735C48.5736 19.9192 48.5154 19.5222 48.5741 19.134C48.6328 18.7459 48.8057 18.3846 49.0703 18.0973C49.3349 17.8099 49.6788 17.6098 50.0574 17.5229C50.436 17.436 50.8317 17.4665 51.1929 17.6103C51.5541 17.754 51.8642 18.0045 52.0828 18.329C52.3013 18.6536 52.4182 19.0371 52.4182 19.4298C52.4299 19.6779 52.3925 19.9258 52.3081 20.159C52.2237 20.3922 52.094 20.606 51.9267 20.7878C51.7593 20.9695 51.5578 21.1156 51.3338 21.2173C51.1098 21.3191 50.868 21.3745 50.6225 21.3803ZM43.6554 16.2116C43.0267 16.214 42.4127 16.4048 41.8911 16.7598C41.3694 17.1149 40.9635 17.6184 40.7245 18.2067C40.4855 18.7949 40.4242 19.4417 40.5483 20.0651C40.6725 20.6886 40.9764 21.2609 41.4219 21.7098C41.8673 22.1587 42.4343 22.464 43.0511 22.5872C43.668 22.7104 44.3071 22.6459 44.8878 22.402C45.4685 22.158 45.9647 21.7455 46.3137 21.2165C46.6628 20.6875 46.8491 20.0658 46.8491 19.4298C46.8553 19.0044 46.7768 18.5821 46.6183 18.1881C46.4599 17.794 46.2247 17.4362 45.9267 17.1359C45.6287 16.8357 45.2741 16.5991 44.8839 16.4403C44.4937 16.2815 44.0759 16.2037 43.6554 16.2116ZM43.6554 21.3803C43.2682 21.4082 42.8816 21.3176 42.5461 21.1202C42.2105 20.9228 41.9415 20.6277 41.774 20.2735C41.6065 19.9192 41.5483 19.5222 41.607 19.134C41.6658 18.7459 41.8386 18.3846 42.1032 18.0973C42.3678 17.8099 42.7117 17.6098 43.0903 17.5229C43.4689 17.436 43.8646 17.4665 44.2258 17.6103C44.587 17.754 44.8971 18.0045 45.1157 18.329C45.3342 18.6536 45.4511 19.0371 45.4511 19.4298C45.4629 19.6779 45.4254 19.9258 45.341 20.159C45.2566 20.3922 45.1269 20.606 44.9596 20.7878C44.7923 20.9695 44.5907 21.1156 44.3667 21.2173C44.1427 21.3191 43.9009 21.3745 43.6554 21.3803ZM35.3677 17.199V18.5643H38.5976C38.551 19.2047 38.292 19.8104 37.8624 20.2832C37.5388 20.6169 37.1495 20.8783 36.7198 21.0504C36.2901 21.2226 35.8295 21.3017 35.3677 21.2827C34.4236 21.2698 33.5225 20.8814 32.8594 20.2015C32.1964 19.5217 31.8246 18.6051 31.8246 17.65C31.8246 16.695 32.1964 15.7784 32.8594 15.0985C33.5225 14.4187 34.4236 14.0302 35.3677 14.0173C36.2745 14.0053 37.1494 14.3558 37.8022 14.9925L38.7543 14.0295C38.3089 13.5834 37.7799 13.2318 37.1983 12.9953C36.6168 12.7587 35.9944 12.642 35.3677 12.652C34.7128 12.6423 34.0624 12.7645 33.4546 13.0113C32.8467 13.2582 32.2935 13.6248 31.8269 14.0898C31.3604 14.5549 30.9899 15.1092 30.7371 15.7203C30.4842 16.3315 30.354 16.9875 30.354 17.65C30.354 18.3126 30.4842 18.9685 30.7371 19.5797C30.9899 20.1909 31.3604 20.7451 31.8269 21.2102C32.2935 21.6753 32.8467 22.0419 33.4546 22.2887C34.0624 22.5356 34.7128 22.6577 35.3677 22.6481C36.0076 22.6749 36.6459 22.5638 37.2402 22.3221C37.8344 22.0804 38.3711 21.7137 38.8145 21.2462C39.6018 20.377 40.0214 19.2306 39.9836 18.0523C39.9867 17.7662 39.9624 17.4805 39.9112 17.199H35.3677ZM69.2615 18.2595C69.0703 17.6766 68.7063 17.1674 68.2191 16.801C67.7318 16.4346 67.1448 16.2288 66.5378 16.2116C66.129 16.2141 65.725 16.3005 65.3501 16.4655C64.9753 16.6305 64.6374 16.8707 64.3569 17.1715C64.0764 17.4723 63.8591 17.8275 63.7182 18.2157C63.5773 18.6038 63.5156 19.0169 63.537 19.4298C63.5278 19.8529 63.603 20.2736 63.7581 20.6666C63.9132 21.0597 64.1451 21.4171 64.4398 21.7175C64.7345 22.0179 65.0861 22.2551 65.4735 22.415C65.8609 22.5749 66.2762 22.6542 66.6945 22.6481C67.2187 22.651 67.7353 22.5222 68.1981 22.2733C68.6608 22.0244 69.0552 21.6631 69.3458 21.2218L68.2612 20.4904C68.0987 20.7634 67.8689 20.9889 67.5942 21.1449C67.3196 21.3009 67.0095 21.382 66.6945 21.3803C66.3704 21.3928 66.05 21.3066 65.7749 21.1327C65.4998 20.9588 65.2828 20.7053 65.1519 20.4051L69.4062 18.6253L69.2615 18.2595ZM64.9229 19.3323C64.908 19.0981 64.9393 18.8632 65.0152 18.6414C65.091 18.4195 65.2099 18.2152 65.3647 18.0404C65.5196 17.8656 65.7073 17.7238 65.917 17.6233C66.1268 17.5228 66.3542 17.4656 66.586 17.455C66.8274 17.439 67.0681 17.4951 67.2781 17.6165C67.4882 17.7379 67.6582 17.9192 67.7671 18.1377L64.9229 19.3323ZM61.464 22.453H62.862V12.9934H61.464V22.453ZM59.1742 16.9308H59.126C58.9135 16.6972 58.6541 16.5122 58.3652 16.3882C58.0763 16.2642 57.7645 16.204 57.4508 16.2116C56.6304 16.2469 55.8551 16.6014 55.287 17.2011C54.7188 17.8008 54.4016 18.5992 54.4016 19.4298C54.4016 20.2604 54.7188 21.0589 55.287 21.6586C55.8551 22.2583 56.6304 22.6128 57.4508 22.6481C57.7658 22.6566 58.0788 22.5955 58.3681 22.4692C58.6574 22.3429 58.916 22.1544 59.126 21.9167H59.1742V22.3799C59.1742 23.6112 58.5234 24.2694 57.4749 24.2694C57.1254 24.261 56.7864 24.1475 56.5009 23.9434C56.2155 23.7393 55.9965 23.4539 55.872 23.1235L54.6548 23.6356C54.8842 24.2005 55.2752 24.6834 55.7776 25.0222C56.28 25.361 56.871 25.5403 57.4749 25.5372C59.114 25.5372 60.4999 24.562 60.4999 22.1849V16.4066H59.1742V16.9308ZM57.5714 21.3803C57.0881 21.3388 56.6379 21.1154 56.3098 20.7542C55.9817 20.393 55.7997 19.9204 55.7997 19.4298C55.7997 18.9393 55.9817 18.4667 56.3098 18.1055C56.6379 17.7443 57.0881 17.5208 57.5714 17.4794C57.8117 17.4913 58.0473 17.552 58.264 17.6579C58.4807 17.7638 58.6741 17.9128 58.8327 18.096C58.9913 18.2791 59.1118 18.4927 59.187 18.7239C59.2622 18.9552 59.2907 19.1994 59.2706 19.442C59.2894 19.6831 59.2599 19.9255 59.1839 20.1549C59.108 20.3842 58.987 20.5956 58.8284 20.7766C58.6698 20.9575 58.4767 21.1043 58.2607 21.208C58.0447 21.3117 57.8102 21.3703 57.5714 21.3803ZM75.8101 12.9935H72.4653V22.453H73.861V18.8691H75.8101C76.2049 18.891 76.5999 18.8312 76.9711 18.6935C77.3423 18.5557 77.6819 18.3429 77.969 18.0679C78.2561 17.793 78.4848 17.4617 78.6411 17.0944C78.7974 16.727 78.878 16.3312 78.878 15.9313C78.878 15.5314 78.7974 15.1356 78.6411 14.7683C78.4848 14.4009 78.2561 14.0696 77.969 13.7947C77.6819 13.5197 77.3423 13.3069 76.9711 13.1691C76.5999 13.0314 76.2049 12.9716 75.8101 12.9935ZM75.8461 17.5526H73.861V14.3101H75.8461C76.0594 14.3056 76.2714 14.3442 76.4698 14.4237C76.6681 14.5032 76.8488 14.6219 77.0012 14.7729C77.1536 14.9239 77.2747 15.1041 77.3573 15.303C77.44 15.502 77.4826 15.7156 77.4826 15.9313C77.4826 16.1471 77.44 16.3607 77.3573 16.5597C77.2747 16.7586 77.1536 16.9388 77.0012 17.0898C76.8488 17.2408 76.6681 17.3595 76.4698 17.439C76.2714 17.5185 76.0594 17.5571 75.8461 17.5526ZM84.4727 16.1942C83.9632 16.1641 83.4562 16.2851 83.0137 16.5424C82.5713 16.7996 82.2128 17.1819 81.9821 17.6424L83.2214 18.1657C83.3442 17.9372 83.5303 17.7498 83.7568 17.6266C83.9833 17.5034 84.2404 17.4497 84.4967 17.472C84.8508 17.437 85.2041 17.5455 85.4793 17.7736C85.7544 18.0017 85.9289 18.3309 85.9645 18.6889V18.7863C85.5163 18.5455 85.0163 18.4201 84.5087 18.4212C83.1733 18.4212 81.8137 19.1636 81.8137 20.551C81.8267 20.8434 81.8976 21.1301 82.0222 21.3943C82.1469 21.6584 82.3227 21.8945 82.5393 22.0886C82.7558 22.2827 83.0087 22.4308 83.283 22.5242C83.5572 22.6175 83.8472 22.6542 84.1357 22.632C84.4872 22.6529 84.8378 22.5781 85.1509 22.4155C85.4641 22.2528 85.7285 22.0082 85.9164 21.7071H85.9645V22.4373H87.312V18.8107C87.312 17.1312 86.0728 16.1942 84.4727 16.1942ZM84.3042 21.3785C83.847 21.3785 83.2093 21.1473 83.2093 20.5753C83.2093 19.8451 84.0034 19.5652 84.6892 19.5652C85.1347 19.5532 85.5751 19.6625 85.9645 19.8816C85.9133 20.2919 85.7169 20.6696 85.4117 20.9447C85.1064 21.2199 84.713 21.374 84.3042 21.3785ZM92.2209 16.4011L90.6207 20.5022H90.5725L88.9122 16.4011H87.4083L89.8988 22.133L88.4791 25.3215H89.9349L93.7729 16.4011H92.2209ZM79.6481 22.453H81.0437V12.9935H79.6481V22.453Z" fill="white"/>
<path d="M7.47693 5.65804C7.23106 5.95088 7.10691 6.32628 7.12992 6.70734V23.2255C7.10685 23.6066 7.231 23.982 7.47693 24.2748L7.53242 24.3287L16.8218 15.0756V14.8573L7.53242 5.60382L7.47693 5.65804Z" fill="url(#paint0_linear_51_3459)"/>
<path d="M19.8597 18.0885L16.8237 14.9767V14.7565L19.8604 11.6455L19.9288 11.6855L23.526 13.7795C24.5535 14.3775 24.5535 15.3561 23.526 15.9545L19.9288 18.0485L19.8597 18.0885Z" fill="url(#paint1_linear_51_3459)"/>
<path d="M19.8532 18.0385L16.7348 14.8665L7.53296 24.2255C7.74321 24.4141 8.01171 24.522 8.29194 24.5304C8.57216 24.5388 8.84646 24.4473 9.06729 24.2716L19.8532 18.0385Z" fill="url(#paint2_linear_51_3459)"/>
<path d="M19.8532 11.6943L9.06729 5.46112C8.84646 5.28547 8.57216 5.19392 8.29194 5.20235C8.01171 5.21077 7.74321 5.31862 7.53296 5.50723L16.7348 14.8662L19.8532 11.6943Z" fill="url(#paint3_linear_51_3459)"/>
<defs>
<linearGradient id="paint0_linear_51_3459" x1="15.998" y1="6.53318" x2="3.4636" y2="19.1167" gradientUnits="userSpaceOnUse">
<stop stop-color="#00A0FF"/>
<stop offset="0.00657" stop-color="#00A1FF"/>
<stop offset="0.2601" stop-color="#00BEFF"/>
<stop offset="0.5122" stop-color="#00D2FF"/>
<stop offset="0.7604" stop-color="#00DFFF"/>
<stop offset="1" stop-color="#00E3FF"/>
</linearGradient>
<linearGradient id="paint1_linear_51_3459" x1="24.8638" y1="14.867" x2="7.07432" y2="14.867" gradientUnits="userSpaceOnUse">
<stop stop-color="#FFE000"/>
<stop offset="0.4087" stop-color="#FFBD00"/>
<stop offset="0.7754" stop-color="#FFA500"/>
<stop offset="1" stop-color="#FF9C00"/>
</linearGradient>
<linearGradient id="paint2_linear_51_3459" x1="18.1588" y1="16.59" x2="1.07088" y2="33.3909" gradientUnits="userSpaceOnUse">
<stop stop-color="#FF3A44"/>
<stop offset="1" stop-color="#C31162"/>
</linearGradient>
<linearGradient id="paint3_linear_51_3459" x1="5.21601" y1="-0.0210859" x2="12.8464" y2="7.48119" gradientUnits="userSpaceOnUse">
<stop stop-color="#32A071"/>
<stop offset="0.0685" stop-color="#2DA771"/>
<stop offset="0.4762" stop-color="#15CF74"/>
<stop offset="0.8009" stop-color="#06E775"/>
<stop offset="1" stop-color="#00F076"/>
</linearGradient>
</defs>
</svg>
