<?xml version="1.0" encoding="UTF-8"?>
<svg id="Layer_2" data-name="Layer 2" xmlns="http://www.w3.org/2000/svg" xmlns:xlink="http://www.w3.org/1999/xlink" viewBox="0 0 49.8 19.66">
  <defs>
    <style>
      .cls-1 {
        fill: #fff;
      }

      .cls-2 {
        fill: url(#Degradado_sin_nombre_6);
      }

      .cls-3 {
        fill: #e6e7e8;
      }
    </style>
    <linearGradient id="Degradado_sin_nombre_6" data-name="Degradado sin nombre 6" x1="0" y1="9.83" x2="49.8" y2="9.83" gradientUnits="userSpaceOnUse">
      <stop offset="0" stop-color="#ff1c3d"/>
      <stop offset="1" stop-color="#d41128"/>
    </linearGradient>
  </defs>
  <g id="OBJECT">
    <g>
      <rect class="cls-2" x="0" y="0" width="49.8" height="19.66" rx="9.83" ry="9.83"/>
      <g>
        <path class="cls-1" d="m27.7,10.6c0,1.26-.41,2.3-1.24,3.14-.83.83-1.87,1.25-3.13,1.25s-2.23-.41-3.08-1.24c-.85-.83-1.27-1.85-1.27-3.06s.43-2.22,1.29-3.03c.84-.79,1.87-1.18,3.09-1.18.91,0,1.75.26,2.52.79.8.55,1.33,1.25,1.57,2.1h-2.34c-.4-.71-1-1.06-1.8-1.06-.65,0-1.19.23-1.62.7-.41.45-.62,1.01-.62,1.67s.2,1.27.6,1.73c.42.49.97.73,1.65.73.47,0,.88-.11,1.22-.32.37-.23.61-.56.73-1h-2.44v-1.67h4.85c0,.06,0,.14.01.22v.22Z"/>
        <path class="cls-1" d="m34.05,14.82l-.4-1.18h-2.84l-.43,1.18h-2.25l3.28-8.18h1.65l3.25,8.18h-2.27Zm-1.31-8.9l-.51-.64-.51.64h-1.79l1.72-1.84h1.19l1.66,1.84h-1.77Zm-.49,3.27h-.03l-.84,2.8h1.72l-.84-2.8Zm1.8-4.35l-.52-1.08,2.65-1.43.59,1.31-2.72,1.2Z"/>
        <path class="cls-1" d="m43.1,10.57c-.16.41-.37.74-.65.98-.33.28-.7.48-1.12.58-.32.08-.74.12-1.27.12h-.91v2.56h-2V6.64h2.68c.26,0,.48,0,.65.02.24.01.47.04.67.08.5.09.9.26,1.2.51.64.54.96,1.26.96,2.16,0,.4-.07.79-.22,1.17Zm-2.22-1.93c-.21-.11-.53-.16-.95-.16h-.77v1.95h.85c.4,0,.71-.06.91-.18.26-.15.39-.42.39-.8s-.14-.65-.43-.8Z"/>
      </g>
      <g>
        <path class="cls-3" d="m11.14,6.75c.46-1.1,1.15-2.39,1.67-3.49-1.66-.58-4.08-1.42-4.08-1.42l-2.14,7.99,2.06-.23-1.48,3.25,2.64-.14s-1.72,3.45-2.27,5.1c1.13-2.03,3.05-4.63,4.19-6.66-.47-.02-.95-.03-1.48-.07.94-1.38,2.13-2.79,3.07-4.17-.4-.04-1.79-.18-2.19-.15Z"/>
        <polygon class="cls-1" points="10.61 6.7 12.3 3.13 8.74 1.84 7.3 7.4 6.79 9.39 8.58 9.22 8.84 9.19 7.92 11.31 7.4 12.52 8.58 12.41 9.43 12.33 7.8 17.27 10.79 11.9 11.2 11.17 10.26 11.08 9.89 11.05 11.67 8.42 12.7 6.9 10.66 6.71 10.61 6.7"/>
      </g>
    </g>
  </g>
</svg>