<svg width="34" height="34" viewBox="0 0 34 34" fill="none" xmlns="http://www.w3.org/2000/svg">
<g opacity="0.8">
<path d="M17 34C26.3888 34 34 26.3888 34 17C34 7.61116 26.3888 0 17 0C7.61116 0 0 7.61116 0 17C0 26.3888 7.61116 34 17 34Z" fill="#007580"/>
</g>
<path d="M19.8092 15.2814C20.6182 15.8517 21.6094 16.1873 22.6799 16.1873V14.156C22.4773 14.156 22.2753 14.1352 22.077 14.0938V15.6927C21.0066 15.6927 20.0156 15.3572 19.2063 14.7869V18.9323C19.2063 21.006 17.5015 22.687 15.3987 22.687C14.6141 22.687 13.8848 22.4531 13.279 22.0519C13.9704 22.7491 14.9347 23.1815 16.0014 23.1815C18.1044 23.1815 19.8092 21.5006 19.8092 19.4267V15.2814H19.8092ZM20.5529 13.232C20.1394 12.7866 19.8679 12.2109 19.8092 11.5745V11.3132H19.2378C19.3817 12.1221 19.8722 12.8132 20.5529 13.232ZM14.609 20.4606C14.378 20.1619 14.2531 19.7965 14.2537 19.4208C14.2537 18.4724 15.0334 17.7033 15.9955 17.7033C16.1747 17.7032 16.3529 17.7304 16.5238 17.7838V15.7071C16.3241 15.6801 16.1226 15.6686 15.9212 15.6728V17.2892C15.7502 17.2358 15.5719 17.2087 15.3926 17.2088C14.4306 17.2088 13.6509 17.9778 13.6509 18.9263C13.6509 19.597 14.0406 20.1777 14.609 20.4606Z" fill="white" fill-opacity="0.8"/>
<path d="M19.2064 14.7868C20.0157 15.3571 21.0066 15.6927 22.0771 15.6927V14.0937C21.4796 13.9682 20.9506 13.6603 20.5529 13.232C19.8722 12.8131 19.3817 12.1221 19.2379 11.3132H17.7372V19.4266C17.7338 20.3725 16.9554 21.1384 15.9954 21.1384C15.4298 21.1384 14.9272 20.8725 14.609 20.4606C14.0406 20.1777 13.6509 19.597 13.6509 18.9264C13.6509 17.9779 14.4306 17.2089 15.3926 17.2089C15.5769 17.2089 15.7545 17.2372 15.9212 17.2893V15.6729C13.8553 15.715 12.1938 17.3795 12.1938 19.4267C12.1938 20.4486 12.6076 21.3751 13.2791 22.052C13.8849 22.4531 14.6141 22.6871 15.3988 22.6871C17.5016 22.6871 19.2064 21.006 19.2064 18.9323V14.7869L19.2064 14.7868Z" fill="white"/>
<path d="M22.077 14.0932V13.6609C21.5382 13.6617 21.01 13.5129 20.5528 13.2315C20.9575 13.6684 21.4904 13.9697 22.077 14.0932V14.0932ZM19.2378 11.3127C19.224 11.2354 19.2135 11.1576 19.2062 11.0794V10.8182H17.1342V18.9317C17.1309 19.8775 16.3525 20.6433 15.3925 20.6433C15.1203 20.6437 14.8519 20.581 14.6088 20.4601C14.9271 20.872 15.4297 21.1378 15.9953 21.1378C16.9552 21.1378 17.7337 20.372 17.7371 19.4262V11.3127H19.2378V11.3127ZM15.9212 15.6723V15.2121C15.7481 15.1887 15.5735 15.177 15.3987 15.1771C13.2957 15.1771 11.5909 16.8582 11.5909 18.9317C11.5909 20.2317 12.2609 21.3774 13.279 22.0514C12.6075 21.3745 12.1938 20.448 12.1938 19.4261C12.1938 17.379 13.8552 15.7144 15.9212 15.6723Z" fill="white" fill-opacity="0.6"/>
</svg>
