<svg width="16" height="14" viewBox="0 0 16 14" fill="none" xmlns="http://www.w3.org/2000/svg">
<path d="M1.125 3.87502H3.70312C3.84081 4.41278 4.15356 4.88942 4.59207 5.22979C5.03057 5.57017 5.56989 5.75492 6.125 5.75492C6.68011 5.75492 7.21943 5.57017 7.65793 5.22979C8.09644 4.88942 8.40919 4.41278 8.54688 3.87502H14.875C15.0408 3.87502 15.1997 3.80917 15.3169 3.69196C15.4342 3.57475 15.5 3.41578 15.5 3.25002C15.5 3.08426 15.4342 2.92529 15.3169 2.80808C15.1997 2.69087 15.0408 2.62502 14.875 2.62502H8.54688C8.40919 2.08726 8.09644 1.61062 7.65793 1.27024C7.21943 0.929869 6.68011 0.745117 6.125 0.745117C5.56989 0.745117 5.03057 0.929869 4.59207 1.27024C4.15356 1.61062 3.84081 2.08726 3.70312 2.62502H1.125C0.95924 2.62502 0.800269 2.69087 0.683058 2.80808C0.565848 2.92529 0.5 3.08426 0.5 3.25002C0.5 3.41578 0.565848 3.57475 0.683058 3.69196C0.800269 3.80917 0.95924 3.87502 1.125 3.87502ZM6.125 2.00002C6.37223 2.00002 6.6139 2.07333 6.81946 2.21068C7.02502 2.34803 7.18524 2.54326 7.27985 2.77167C7.37446 3.00007 7.39921 3.25141 7.35098 3.49388C7.30275 3.73636 7.1837 3.95909 7.00888 4.1339C6.83407 4.30872 6.61134 4.42777 6.36886 4.476C6.12639 4.52423 5.87505 4.49948 5.64665 4.40487C5.41824 4.31026 5.22301 4.15004 5.08566 3.94448C4.94831 3.73892 4.875 3.49725 4.875 3.25002C4.875 2.9185 5.0067 2.60056 5.24112 2.36614C5.47554 2.13172 5.79348 2.00002 6.125 2.00002ZM14.875 10.125H13.5469C13.4092 9.58726 13.0964 9.11062 12.6579 8.77024C12.2194 8.42987 11.6801 8.24512 11.125 8.24512C10.5699 8.24512 10.0306 8.42987 9.59207 8.77024C9.15356 9.11062 8.84081 9.58726 8.70312 10.125H1.125C0.95924 10.125 0.800269 10.1909 0.683058 10.3081C0.565848 10.4253 0.5 10.5843 0.5 10.75C0.5 10.9158 0.565848 11.0748 0.683058 11.192C0.800269 11.3092 0.95924 11.375 1.125 11.375H8.70312C8.84081 11.9128 9.15356 12.3894 9.59207 12.7298C10.0306 13.0702 10.5699 13.2549 11.125 13.2549C11.6801 13.2549 12.2194 13.0702 12.6579 12.7298C13.0964 12.3894 13.4092 11.9128 13.5469 11.375H14.875C15.0408 11.375 15.1997 11.3092 15.3169 11.192C15.4342 11.0748 15.5 10.9158 15.5 10.75C15.5 10.5843 15.4342 10.4253 15.3169 10.3081C15.1997 10.1909 15.0408 10.125 14.875 10.125ZM11.125 12C10.8778 12 10.6361 11.9267 10.4305 11.7894C10.225 11.652 10.0648 11.4568 9.97015 11.2284C9.87554 11 9.85079 10.7486 9.89902 10.5062C9.94725 10.2637 10.0663 10.041 10.2411 9.86614C10.4159 9.69132 10.6387 9.57227 10.8811 9.52404C11.1236 9.47581 11.3749 9.50056 11.6034 9.59517C11.8318 9.68978 12.027 9.84999 12.1643 10.0556C12.3017 10.2611 12.375 10.5028 12.375 10.75C12.375 11.0815 12.2433 11.3995 12.0089 11.6339C11.7745 11.8683 11.4565 12 11.125 12Z" fill="#BDBDBD"/>
</svg>
