<svg width="123" height="36" viewBox="0 0 123 36" fill="none" xmlns="http://www.w3.org/2000/svg">
<rect width="123" height="36" rx="5" fill="black"/>
<path d="M26.4832 17.085C26.494 16.2442 26.7163 15.4198 27.1295 14.6886C27.5427 13.9573 28.1333 13.3429 28.8464 12.9025C28.3934 12.2526 27.7958 11.7178 27.101 11.3405C26.4062 10.9632 25.6334 10.7538 24.844 10.729C23.16 10.5515 21.5274 11.7412 20.6693 11.7412C19.7946 11.7412 18.4733 10.7466 17.0506 10.776C16.1303 10.8059 15.2335 11.0747 14.4474 11.5563C13.6613 12.0378 13.0128 12.7157 12.565 13.5239C10.6256 16.8968 12.0722 21.854 13.9301 24.5804C14.8596 25.9155 15.9459 27.4068 17.3674 27.3539C18.7584 27.2959 19.2779 26.4629 20.9569 26.4629C22.6204 26.4629 23.1078 27.3539 24.5581 27.3202C26.0507 27.2959 26.9911 25.9793 27.888 24.6315C28.5559 23.6803 29.0698 22.6289 29.4107 21.5164C28.5436 21.148 27.8035 20.5313 27.283 19.7433C26.7624 18.9553 26.4842 18.0307 26.4832 17.085Z" fill="white"/>
<path d="M23.8387 8.9686C24.7005 8.03106 25.1251 6.82602 25.0223 5.60938C23.7056 5.73469 22.4893 6.30495 21.6158 7.20651C21.1887 7.64695 20.8616 8.15935 20.6532 8.71441C20.4448 9.26947 20.3591 9.85631 20.4011 10.4414C21.0597 10.4475 21.7113 10.3182 22.3067 10.0631C22.9022 9.80795 23.426 9.43374 23.8387 8.9686Z" fill="white"/>
<path d="M44.2309 23.9454H39.4303L38.2775 27.3557H36.2441L40.7912 14.7383H42.9038L47.4508 27.3557H45.3828L44.2309 23.9454ZM39.9275 22.3717H43.7328L41.8569 16.8369H41.8044L39.9275 22.3717Z" fill="white"/>
<path d="M57.2906 22.8276C57.2906 25.6261 55.7462 27.4241 53.4156 27.4241C52.8252 27.4541 52.238 27.3222 51.7213 27.0435C51.2046 26.7649 50.7793 26.3508 50.494 25.8486H50.4499V30.3091H48.5439V18.3244H50.3889V19.8222H50.4239C50.7223 19.3225 51.1548 18.9105 51.6755 18.6301C52.1961 18.3498 52.7853 18.2116 53.3805 18.2302C55.7371 18.2302 57.2906 20.0369 57.2906 22.8276ZM55.3316 22.8276C55.3316 21.0044 54.36 19.8057 52.8777 19.8057C51.4215 19.8057 50.4419 21.0296 50.4419 22.8276C50.4419 24.6421 51.4215 25.8573 52.8777 25.8573C54.36 25.8573 55.3316 24.6674 55.3316 22.8276Z" fill="white"/>
<path d="M67.4039 22.8276C67.4039 25.6261 65.8595 27.4241 63.5288 27.4241C62.9385 27.4541 62.3513 27.3222 61.8346 27.0435C61.3179 26.7649 60.8926 26.3507 60.6073 25.8486H60.5632V30.3091H58.6572V18.3244H60.5021V19.8222H60.5371C60.8356 19.3224 61.2681 18.9105 61.7887 18.6301C62.3093 18.3498 62.8986 18.2116 63.4938 18.2302C65.8505 18.2302 67.4039 20.0369 67.4039 22.8276ZM65.4448 22.8276C65.4448 21.0044 64.4733 19.8057 62.991 19.8057C61.5347 19.8057 60.5552 21.0296 60.5552 22.8276C60.5552 24.6421 61.5347 25.8573 62.991 25.8573C64.4733 25.8573 65.4448 24.6674 65.4448 22.8276H65.4448Z" fill="white"/>
<path d="M74.0156 23.9419C74.1578 25.1785 75.3934 25.9904 77.0818 25.9904C78.6996 25.9904 79.8635 25.1785 79.8635 24.0634C79.8635 23.0955 79.1615 22.516 77.4993 22.1188L75.8371 21.7295C73.482 21.1764 72.3887 20.1055 72.3887 18.3677C72.3887 16.2161 74.3172 14.7383 77.0555 14.7383C79.7656 14.7383 81.6235 16.2161 81.6861 18.3677H79.7485C79.6325 17.1233 78.5745 16.3721 77.0283 16.3721C75.4821 16.3721 74.424 17.1321 74.424 18.2383C74.424 19.1199 75.0998 19.6387 76.7529 20.0358L78.166 20.3732C80.7974 20.9782 81.8908 22.006 81.8908 23.83C81.8908 26.163 79.9795 27.6242 76.9395 27.6242C74.0952 27.6242 72.1748 26.1973 72.0508 23.9418L74.0156 23.9419Z" fill="white"/>
<path d="M85.9041 16.08V18.2276H87.6309V19.7027H85.9041V24.7056C85.9041 25.4828 86.2499 25.845 87.009 25.845C87.214 25.8414 87.4186 25.827 87.6221 25.8019V27.2682C87.2808 27.3319 86.9339 27.3608 86.5868 27.3543C84.7483 27.3543 84.0313 26.6642 84.0313 24.9043V19.7027H82.7109V18.2276H84.0313V16.08H85.9041Z" fill="white"/>
<path d="M88.4507 22.7923C88.4507 19.9896 90.1592 18.2285 92.8235 18.2285C95.4967 18.2285 97.1973 19.9896 97.1973 22.7923C97.1973 25.6026 95.5057 27.356 92.8235 27.356C90.1423 27.356 88.4507 25.6026 88.4507 22.7923ZM95.269 22.7923C95.269 20.8697 94.357 19.735 92.8235 19.735C91.29 19.735 90.379 20.8784 90.379 22.7923C90.379 24.7225 91.29 25.8486 92.8235 25.8486C94.357 25.8486 95.2689 24.7225 95.2689 22.7923H95.269Z" fill="white"/>
<path d="M98.8374 18.3246H100.616V19.8618H100.659C100.78 19.3817 101.063 18.9574 101.461 18.6603C101.859 18.3631 102.348 18.2112 102.845 18.2301C103.06 18.2293 103.274 18.2525 103.484 18.2993V20.0333C103.213 19.9508 102.93 19.913 102.646 19.9212C102.375 19.9103 102.105 19.9578 101.854 20.0604C101.603 20.1631 101.378 20.3184 101.193 20.5158C101.009 20.7132 100.869 20.948 100.785 21.204C100.7 21.4601 100.672 21.7313 100.703 21.9991V27.356H98.8374L98.8374 18.3246Z" fill="white"/>
<path d="M112.128 24.6293C111.88 26.2463 110.293 27.356 108.263 27.356C105.652 27.356 104.031 25.6199 104.031 22.8345C104.031 20.0406 105.66 18.2285 108.185 18.2285C110.669 18.2285 112.231 19.9214 112.231 22.6222V23.2487H105.891V23.3591C105.861 23.687 105.903 24.0172 106.012 24.3279C106.121 24.6387 106.296 24.9228 106.524 25.1614C106.753 25.4001 107.03 25.5877 107.337 25.712C107.644 25.8363 107.974 25.8943 108.306 25.8822C108.741 25.9227 109.178 25.8226 109.551 25.5969C109.925 25.3711 110.215 25.0318 110.379 24.6293L112.128 24.6293ZM105.899 21.9708H110.387C110.404 21.676 110.359 21.3811 110.255 21.1044C110.151 20.8277 109.991 20.5753 109.784 20.3631C109.577 20.1508 109.329 19.9832 109.054 19.8708C108.778 19.7584 108.483 19.7037 108.185 19.7101C107.885 19.7083 107.588 19.7655 107.31 19.8784C107.033 19.9913 106.78 20.1576 106.568 20.3678C106.355 20.578 106.187 20.8278 106.072 21.103C105.957 21.3781 105.899 21.6731 105.899 21.9708V21.9708Z" fill="white"/>
<path d="M39.7385 5.61607C40.1231 5.58843 40.5091 5.64662 40.8685 5.78645C41.228 5.92629 41.552 6.14427 41.8171 6.42469C42.0822 6.70511 42.2819 7.04096 42.4018 7.40803C42.5216 7.77511 42.5586 8.16424 42.5101 8.54737C42.5101 10.4321 41.4931 11.5154 39.7385 11.5154H37.6108V5.61607H39.7385ZM38.5257 10.6811H39.6363C39.9111 10.6976 40.1862 10.6524 40.4414 10.549C40.6966 10.4456 40.9256 10.2865 41.1117 10.0832C41.2978 9.87997 41.4363 9.63774 41.5171 9.37413C41.5979 9.11053 41.619 8.8322 41.5789 8.5594C41.6161 8.28767 41.5928 8.01106 41.5108 7.74939C41.4287 7.48772 41.2899 7.24747 41.1043 7.04585C40.9186 6.84422 40.6907 6.68622 40.4369 6.58316C40.1831 6.48011 39.9097 6.43454 39.6363 6.44974H38.5257V10.6811Z" fill="white"/>
<path d="M43.6343 9.23306C43.6053 8.94429 43.64 8.65293 43.7362 8.37768C43.8324 8.10242 43.9879 7.84935 44.1928 7.63468C44.3977 7.42001 44.6475 7.24849 44.9261 7.13112C45.2047 7.01375 45.506 6.95313 45.8107 6.95312C46.1154 6.95313 46.4167 7.01375 46.6953 7.13112C46.9739 7.24849 47.2237 7.42001 47.4286 7.63468C47.6335 7.84935 47.789 8.10242 47.8852 8.37768C47.9814 8.65293 48.0161 8.94429 47.9871 9.23306C48.0166 9.52212 47.9824 9.81388 47.8864 10.0896C47.7905 10.3653 47.6351 10.6188 47.4301 10.8339C47.2251 11.049 46.9752 11.2209 46.6963 11.3385C46.4174 11.4561 46.1157 11.5169 45.8107 11.5169C45.5057 11.5169 45.204 11.4561 44.9251 11.3385C44.6462 11.2209 44.3963 11.049 44.1913 10.8339C43.9863 10.6188 43.8309 10.3653 43.735 10.0896C43.639 9.81388 43.6048 9.52212 43.6343 9.23306ZM47.0503 9.23306C47.0503 8.28057 46.6009 7.72356 45.8122 7.72356C45.0205 7.72356 44.5752 8.28057 44.5752 9.23307C44.5752 10.1932 45.0205 10.7459 45.8122 10.7459C46.6009 10.7459 47.0503 10.1894 47.0503 9.23306H47.0503Z" fill="white"/>
<path d="M53.5851 11.5169H52.6564L51.7188 8.15567H51.6479L50.7143 11.5169H49.7944L48.5439 6.95312H49.452L50.2647 10.4355H50.3316L51.2642 6.95312H52.1231L53.0558 10.4355H53.1266L53.9353 6.95312H54.8306L53.5851 11.5169Z" fill="white"/>
<path d="M55.9238 7.04387H56.7763V7.75445H56.8425C56.9548 7.49923 57.1441 7.28529 57.3842 7.14244C57.6242 6.99959 57.903 6.93495 58.1816 6.95753C58.3999 6.94116 58.6192 6.97398 58.8231 7.05354C59.0269 7.13311 59.2103 7.25738 59.3594 7.41716C59.5086 7.57693 59.6198 7.76811 59.6848 7.97654C59.7497 8.18497 59.7668 8.40529 59.7348 8.6212V11.5168H58.8492V8.84288C58.8492 8.12406 58.5358 7.76658 57.8809 7.76658C57.7326 7.7597 57.5847 7.78484 57.4471 7.8403C57.3095 7.89576 57.1856 7.98022 57.0838 8.08789C56.982 8.19555 56.9048 8.32388 56.8575 8.46407C56.8101 8.60426 56.7937 8.75301 56.8094 8.90011V11.5169H55.9238L55.9238 7.04387Z" fill="white"/>
<path d="M61.3909 5.3418H62.2109V11.5163H61.3909V5.3418Z" fill="white"/>
<path d="M63.3145 9.23311C63.2855 8.94432 63.3202 8.65296 63.4164 8.3777C63.5126 8.10243 63.6681 7.84935 63.873 7.63468C64.0779 7.42001 64.3277 7.24849 64.6063 7.13112C64.8849 7.01375 65.1862 6.95312 65.4909 6.95312C65.7955 6.95312 66.0968 7.01375 66.3754 7.13112C66.654 7.24849 66.9038 7.42001 67.1087 7.63468C67.3136 7.84935 67.4692 8.10243 67.5654 8.3777C67.6615 8.65296 67.6963 8.94432 67.6673 9.23311C67.6968 9.52218 67.6625 9.81394 67.5665 10.0896C67.4706 10.3653 67.3152 10.6189 67.1102 10.8339C66.9052 11.049 66.6553 11.2209 66.3764 11.3385C66.0975 11.4561 65.7959 11.5169 65.4909 11.5169C65.1859 11.5169 64.8842 11.4561 64.6054 11.3385C64.3265 11.2209 64.0765 11.049 63.8716 10.8339C63.6666 10.6189 63.5111 10.3653 63.4152 10.0896C63.3193 9.81394 63.2849 9.52218 63.3145 9.23311ZM66.7301 9.23311C66.7301 8.28063 66.2807 7.72363 65.4921 7.72363C64.7005 7.72363 64.2552 8.28063 64.2552 9.23312C64.2552 10.1932 64.7006 10.7459 65.4921 10.7459C66.2807 10.7459 66.7301 10.1894 66.7301 9.23311H66.7301Z" fill="white"/>
<path d="M68.771 10.1932C68.771 9.40127 69.3821 8.94475 70.4668 8.87987L71.7018 8.81118V8.43146C71.7018 7.96682 71.3834 7.70446 70.7684 7.70446C70.2661 7.70446 69.918 7.88239 69.8181 8.19342H68.947C69.039 7.43779 69.7756 6.95312 70.8099 6.95312C71.953 6.95312 72.5977 7.50218 72.5977 8.43146V11.4373H71.7315V10.819H71.6603C71.5158 11.0408 71.3129 11.2216 71.0723 11.3429C70.8317 11.4643 70.562 11.5219 70.2908 11.5098C70.0994 11.529 69.9059 11.5093 69.7229 11.4519C69.5399 11.3946 69.3713 11.3008 69.2281 11.1768C69.085 11.0528 68.9703 10.9011 68.8916 10.7317C68.8128 10.5623 68.7718 10.3788 68.771 10.1932ZM71.7018 9.81725V9.44945L70.5884 9.51815C69.9605 9.55869 69.6757 9.76477 69.6757 10.1526C69.6757 10.5485 70.0317 10.7789 70.5212 10.7789C70.6646 10.793 70.8095 10.779 70.9472 10.7379C71.0849 10.6967 71.2127 10.6293 71.3228 10.5396C71.433 10.4499 71.5233 10.3397 71.5884 10.2156C71.6535 10.0915 71.6921 9.95602 71.7018 9.81725Z" fill="white"/>
<path d="M73.6908 9.24698C73.6908 7.8604 74.4515 6.98201 75.6347 6.98201C75.9274 6.96938 76.2179 7.03506 76.4722 7.17139C76.7265 7.30772 76.9341 7.50906 77.0708 7.75187H77.1399V5.3418H78.0641V11.4429H77.1785V10.7496H77.1054C76.9581 10.9908 76.7432 11.1897 76.484 11.3246C76.2248 11.4596 75.9311 11.5255 75.6347 11.5153C74.4434 11.5153 73.6908 10.6369 73.6908 9.24698ZM74.6455 9.24698C74.6455 10.1777 75.1137 10.7378 75.8968 10.7378C76.6758 10.7378 77.1572 10.1696 77.1572 9.25079C77.1572 8.33624 76.6707 7.76 75.8968 7.76C75.1188 7.76 74.6455 8.32386 74.6455 9.24698H74.6455Z" fill="white"/>
<path d="M81.6275 9.23306C81.5985 8.94429 81.6332 8.65293 81.7293 8.37768C81.8255 8.10242 81.981 7.84935 82.186 7.63468C82.3909 7.42001 82.6406 7.24849 82.9193 7.13112C83.1979 7.01375 83.4992 6.95312 83.8038 6.95312C84.1085 6.95313 84.4098 7.01375 84.6884 7.13112C84.967 7.24849 85.2168 7.42001 85.4217 7.63468C85.6266 7.84935 85.7822 8.10242 85.8783 8.37768C85.9745 8.65293 86.0092 8.94429 85.9802 9.23306C86.0098 9.52212 85.9755 9.81388 85.8796 10.0896C85.7836 10.3653 85.6282 10.6188 85.4232 10.8339C85.2183 11.049 84.9683 11.2209 84.6894 11.3385C84.4105 11.4561 84.1089 11.5169 83.8038 11.5169C83.4988 11.5169 83.1972 11.4561 82.9183 11.3385C82.6394 11.2209 82.3894 11.049 82.1844 10.8339C81.9795 10.6188 81.824 10.3653 81.7281 10.0896C81.6322 9.81388 81.5979 9.52212 81.6275 9.23306ZM85.0434 9.23306C85.0434 8.28057 84.594 7.72356 83.8053 7.72356C83.0137 7.72356 82.5683 8.28057 82.5683 9.23307C82.5683 10.1932 83.0137 10.7459 83.8053 10.7459C84.594 10.7459 85.0434 10.1894 85.0434 9.23306Z" fill="white"/>
<path d="M87.084 7.04387H87.9974V7.75445H88.0683C88.1886 7.49923 88.3914 7.28529 88.6486 7.14244C88.9058 6.99959 89.2045 6.93495 89.503 6.95753C89.737 6.94116 89.9719 6.97398 90.1903 7.05354C90.4088 7.13311 90.6052 7.25738 90.765 7.41716C90.9248 7.57693 91.0439 7.76811 91.1136 7.97654C91.1832 8.18497 91.2015 8.40529 91.1672 8.6212V11.5168H90.2183V8.84288C90.2183 8.12406 89.8826 7.76658 89.1808 7.76658C89.022 7.7597 88.8634 7.78484 88.716 7.8403C88.5686 7.89576 88.4359 7.98022 88.3268 8.08789C88.2178 8.19555 88.1351 8.32388 88.0843 8.46407C88.0336 8.60426 88.016 8.75301 88.0328 8.90011V11.5169H87.084V7.04387Z" fill="white"/>
<path d="M96.1639 5.87871V7.01802H97.1974V7.76505H96.1639V10.0758C96.1639 10.5466 96.3698 10.7527 96.8384 10.7527C96.9584 10.7523 97.0783 10.7455 97.1974 10.7322V11.471C97.0284 11.4995 96.8571 11.5146 96.6853 11.5163C95.6383 11.5163 95.2214 11.1693 95.2214 10.3029V7.76501H94.4641V7.01798H95.2214V5.87871H96.1639Z" fill="white"/>
<path d="M98.2908 5.3418H99.2196V7.78906H99.2938C99.4183 7.53331 99.6242 7.31971 99.8833 7.17735C100.142 7.03499 100.442 6.9708 100.742 6.99353C100.971 6.98184 101.201 7.01772 101.414 7.09864C101.628 7.17955 101.819 7.30349 101.976 7.46162C102.132 7.61975 102.249 7.80817 102.318 8.01343C102.387 8.2187 102.408 8.43576 102.377 8.64912V11.5163H101.439V8.86533C101.439 8.156 101.086 7.79675 100.423 7.79675C100.262 7.7844 100.1 7.80511 99.9488 7.85743C99.7972 7.90975 99.6596 7.99243 99.5458 8.09967C99.4319 8.2069 99.3444 8.33612 99.2895 8.47827C99.2346 8.62042 99.2136 8.77208 99.2279 8.92263V11.5163H98.2908L98.2908 5.3418Z" fill="white"/>
<path d="M107.531 10.2382C107.41 10.6388 107.149 10.9854 106.792 11.2173C106.436 11.4492 106.007 11.5515 105.582 11.5065C105.285 11.5141 104.991 11.4588 104.718 11.3444C104.446 11.23 104.203 11.0592 104.005 10.8439C103.807 10.6286 103.66 10.3739 103.573 10.0976C103.487 9.82125 103.463 9.52986 103.504 9.24364C103.464 8.95654 103.488 8.66453 103.575 8.38737C103.661 8.11021 103.808 7.85438 104.004 7.63719C104.201 7.42001 104.443 7.24654 104.715 7.12853C104.986 7.01052 105.28 6.95073 105.578 6.9532C106.829 6.9532 107.584 7.7866 107.584 9.16328V9.46519H104.408V9.51367C104.394 9.67456 104.415 9.8365 104.469 9.98911C104.523 10.1417 104.609 10.2816 104.722 10.3999C104.835 10.5181 104.972 10.6121 105.124 10.6758C105.276 10.7395 105.44 10.7714 105.606 10.7696C105.818 10.7945 106.033 10.7572 106.224 10.6626C106.415 10.5679 106.572 10.4202 106.676 10.2381L107.531 10.2382ZM104.408 8.82529H106.68C106.691 8.67816 106.671 8.53036 106.62 8.39141C106.569 8.25246 106.489 8.12542 106.384 8.01847C106.28 7.91151 106.154 7.827 106.014 7.77036C105.874 7.71372 105.724 7.6862 105.573 7.68958C105.419 7.6877 105.267 7.7158 105.125 7.77222C104.982 7.82863 104.853 7.91222 104.745 8.01807C104.636 8.12391 104.55 8.24986 104.493 8.3885C104.435 8.52714 104.406 8.67565 104.408 8.82529H104.408Z" fill="white"/>
</svg>
