<?xml version="1.0" encoding="UTF-8"?>
<svg id="Layer_2" data-name="Layer 2" xmlns="http://www.w3.org/2000/svg" xmlns:xlink="http://www.w3.org/1999/xlink" viewBox="0 0 592.38 162.63">
  <defs>
    <style>
      .cls-1 {
        fill: url(#linear-gradient-2);
      }

      .cls-2 {
        fill: url(#linear-gradient-51);
      }

      .cls-3 {
        fill: #fff;
      }

      .cls-4 {
        fill: url(#linear-gradient-17);
      }

      .cls-5 {
        fill: url(#linear-gradient-43);
      }

      .cls-6 {
        fill: url(#linear-gradient-15);
      }

      .cls-7 {
        fill: url(#linear-gradient-18);
      }

      .cls-8 {
        fill: url(#linear-gradient-40);
      }

      .cls-9 {
        fill: url(#linear-gradient-52);
      }

      .cls-10 {
        fill: url(#linear-gradient-28);
      }

      .cls-11 {
        fill: url(#linear-gradient-14);
      }

      .cls-12 {
        fill: url(#linear-gradient-36);
      }

      .cls-13 {
        fill: url(#linear-gradient-20);
      }

      .cls-14 {
        fill: url(#linear-gradient-6);
      }

      .cls-15 {
        fill: url(#linear-gradient-53);
      }

      .cls-16 {
        fill: url(#linear-gradient-35);
      }

      .cls-17 {
        fill: url(#linear-gradient-48);
      }

      .cls-18 {
        fill: url(#linear-gradient-32);
      }

      .cls-19 {
        fill: url(#linear-gradient-11);
      }

      .cls-20 {
        fill: url(#linear-gradient-50);
      }

      .cls-21 {
        fill: url(#linear-gradient-39);
      }

      .cls-22 {
        fill: url(#linear-gradient-10);
      }

      .cls-23 {
        fill: url(#radial-gradient);
      }

      .cls-24 {
        fill: url(#linear-gradient-49);
      }

      .cls-25 {
        fill: url(#linear-gradient-37);
      }

      .cls-26 {
        fill: url(#linear-gradient-16);
      }

      .cls-27 {
        fill: url(#linear-gradient-31);
      }

      .cls-28 {
        fill: url(#linear-gradient-41);
      }

      .cls-29 {
        fill: url(#linear-gradient-21);
      }

      .cls-30 {
        fill: url(#linear-gradient-25);
      }

      .cls-31 {
        fill: url(#linear-gradient-5);
      }

      .cls-32 {
        fill: url(#linear-gradient-45);
      }

      .cls-33 {
        fill: url(#radial-gradient-2);
      }

      .cls-34 {
        fill: url(#linear-gradient-34);
      }

      .cls-35 {
        fill: url(#linear-gradient-7);
      }

      .cls-36 {
        fill: url(#linear-gradient-24);
      }

      .cls-37 {
        fill: url(#linear-gradient-9);
      }

      .cls-38 {
        fill: url(#linear-gradient-22);
      }

      .cls-39 {
        fill: url(#linear-gradient-42);
      }

      .cls-40 {
        fill: url(#linear-gradient-3);
      }

      .cls-41 {
        fill: url(#linear-gradient);
      }

      .cls-42 {
        fill: url(#linear-gradient-27);
      }

      .cls-43 {
        fill: #e9292a;
      }

      .cls-44 {
        fill: url(#linear-gradient-33);
      }

      .cls-45 {
        fill: url(#linear-gradient-38);
      }

      .cls-46 {
        fill: url(#linear-gradient-29);
      }

      .cls-47 {
        fill: url(#linear-gradient-30);
      }

      .cls-48 {
        fill: url(#linear-gradient-23);
      }

      .cls-49 {
        fill: url(#linear-gradient-19);
      }

      .cls-50 {
        fill: url(#linear-gradient-4);
      }

      .cls-51 {
        fill: url(#linear-gradient-8);
      }

      .cls-52 {
        fill: url(#linear-gradient-44);
      }

      .cls-53 {
        fill: url(#linear-gradient-47);
      }

      .cls-54 {
        fill: url(#linear-gradient-46);
      }

      .cls-55 {
        fill: url(#linear-gradient-12);
      }

      .cls-56 {
        fill: url(#linear-gradient-13);
      }

      .cls-57 {
        fill: url(#linear-gradient-26);
      }
    </style>
    <linearGradient id="linear-gradient" x1="327.19" y1="63.37" x2="391.11" y2="63.37" gradientUnits="userSpaceOnUse">
      <stop offset="0" stop-color="#fff"/>
      <stop offset="1" stop-color="#ccc"/>
    </linearGradient>
    <linearGradient id="linear-gradient-2" x1="247.24" y1="74.81" x2="306.96" y2="74.81" xlink:href="#linear-gradient"/>
    <linearGradient id="linear-gradient-3" x1="147.63" y1="62.74" x2="216.52" y2="62.74" xlink:href="#linear-gradient"/>
    <linearGradient id="linear-gradient-4" x1="251.15" y1="74.77" x2="302.73" y2="74.77" xlink:href="#linear-gradient"/>
    <linearGradient id="linear-gradient-5" x1="318" y1="103.33" x2="235.73" y2="45.61" xlink:href="#linear-gradient"/>
    <linearGradient id="linear-gradient-6" x1="164.2" y1="58.86" x2="213.68" y2="58.86" xlink:href="#linear-gradient"/>
    <linearGradient id="linear-gradient-7" x1="236" y1="63.1" x2="168.94" y2="63.1" xlink:href="#linear-gradient"/>
    <linearGradient id="linear-gradient-8" x1="176.21" y1="79.18" x2="145.02" y2="79.18" xlink:href="#linear-gradient"/>
    <linearGradient id="linear-gradient-9" x1="236.65" y1="26.92" x2="196.05" y2="26.92" xlink:href="#linear-gradient"/>
    <linearGradient id="linear-gradient-10" x1="346.53" y1="98.75" x2="319.16" y2="98.75" xlink:href="#linear-gradient"/>
    <linearGradient id="linear-gradient-11" x1="333.64" y1="74.92" x2="388.37" y2="74.92" xlink:href="#linear-gradient"/>
    <linearGradient id="linear-gradient-12" x1="413.28" y1="103.33" x2="327.36" y2="57.23" xlink:href="#linear-gradient"/>
    <linearGradient id="linear-gradient-13" x1="295.56" y1="31.31" x2="357.51" y2="91.77" xlink:href="#linear-gradient"/>
    <linearGradient id="linear-gradient-14" x1="351.76" y1="29.25" x2="320.4" y2="29.25" xlink:href="#linear-gradient"/>
    <linearGradient id="linear-gradient-15" x1="196.97" y1="135.96" x2="223.6" y2="135.96" xlink:href="#linear-gradient"/>
    <linearGradient id="linear-gradient-16" x1="221.88" y1="135.32" x2="234.66" y2="135.32" xlink:href="#linear-gradient"/>
    <linearGradient id="linear-gradient-17" x1="234.95" y1="140.24" x2="274.49" y2="140.24" xlink:href="#linear-gradient"/>
    <linearGradient id="linear-gradient-18" x1="291.24" y1="140.52" x2="315.26" y2="140.52" xlink:href="#linear-gradient"/>
    <linearGradient id="linear-gradient-19" x1="314.75" y1="135.37" x2="327.21" y2="135.37" xlink:href="#linear-gradient"/>
    <linearGradient id="linear-gradient-20" x1="328.82" y1="139.43" x2="351.17" y2="139.43" xlink:href="#linear-gradient"/>
    <linearGradient id="linear-gradient-21" x1="352.53" y1="140.52" x2="372.5" y2="140.52" xlink:href="#linear-gradient"/>
    <linearGradient id="linear-gradient-22" x1="518.42" y1="74.43" x2="591.36" y2="74.43" gradientUnits="userSpaceOnUse">
      <stop offset="0" stop-color="#b52028"/>
      <stop offset=".32" stop-color="#c72228"/>
      <stop offset="1" stop-color="#eb2628"/>
    </linearGradient>
    <linearGradient id="linear-gradient-23" x1="430.83" y1="64.04" x2="486.09" y2="64.04" xlink:href="#linear-gradient-22"/>
    <linearGradient id="linear-gradient-24" x1="510.08" y1="60.16" x2="416.63" y2="24.78" gradientUnits="userSpaceOnUse">
      <stop offset="0" stop-color="#b5202a"/>
      <stop offset=".3" stop-color="#c5222a"/>
      <stop offset="1" stop-color="#e9292a"/>
    </linearGradient>
    <linearGradient id="linear-gradient-25" x1="494.57" y1="95.34" x2="422" y2="58.56" xlink:href="#linear-gradient-24"/>
    <linearGradient id="linear-gradient-26" x1="481.8" y1="88.52" x2="419.4" y2="53.71" xlink:href="#linear-gradient-24"/>
    <linearGradient id="linear-gradient-27" x1="370.16" y1="32.7" x2="509.49" y2="79.47" xlink:href="#linear-gradient-24"/>
    <linearGradient id="linear-gradient-28" x1="415.79" y1="49.46" x2="448.63" y2="48.79" xlink:href="#linear-gradient-24"/>
    <linearGradient id="linear-gradient-29" x1="409.56" y1="77.8" x2="440.08" y2="78.13" xlink:href="#linear-gradient-24"/>
    <linearGradient id="linear-gradient-30" x1="444.45" y1="63.4" x2="479.61" y2="63.4" xlink:href="#linear-gradient-24"/>
    <linearGradient id="linear-gradient-31" x1="525.8" y1="85" x2="525.81" y2="85" xlink:href="#linear-gradient-24"/>
    <linearGradient id="linear-gradient-32" x1="515.56" y1="74.33" x2="591.21" y2="74.33" xlink:href="#linear-gradient-24"/>
    <linearGradient id="linear-gradient-33" x1="521.16" y1="76.98" x2="620.04" y2="76.98" xlink:href="#linear-gradient-24"/>
    <linearGradient id="linear-gradient-34" x1="606.27" y1="72.42" x2="505.58" y2="72.42" xlink:href="#linear-gradient-24"/>
    <linearGradient id="linear-gradient-35" x1="569.32" y1="60.13" x2="591.01" y2="60.13" xlink:href="#linear-gradient-24"/>
    <linearGradient id="linear-gradient-36" x1="543.94" y1="88.06" x2="511.6" y2="88.06" xlink:href="#linear-gradient-24"/>
    <linearGradient id="linear-gradient-37" x1="98.66" y1="57.04" x2="117.28" y2="57.04" xlink:href="#linear-gradient-24"/>
    <linearGradient id="linear-gradient-38" x1="126.01" y1="57.65" x2="126.07" y2="57.65" xlink:href="#linear-gradient-24"/>
    <linearGradient id="linear-gradient-39" x1="126.07" y1="58.44" x2="126.13" y2="58.44" xlink:href="#linear-gradient-24"/>
    <linearGradient id="linear-gradient-40" x1="126.13" y1="59.67" x2="126.22" y2="59.67" xlink:href="#linear-gradient-24"/>
    <linearGradient id="linear-gradient-41" x1="60.46" y1="49.49" x2="117.25" y2="49.49" xlink:href="#linear-gradient-24"/>
    <linearGradient id="linear-gradient-42" x1="85.31" y1="57.93" x2="126.26" y2="57.93" xlink:href="#linear-gradient-24"/>
    <linearGradient id="linear-gradient-43" x1="28.48" y1="109.11" x2="96.96" y2="109.11" xlink:href="#linear-gradient"/>
    <linearGradient id="linear-gradient-44" x1="0" y1="91" x2="97.12" y2="91" xlink:href="#linear-gradient"/>
    <linearGradient id="linear-gradient-45" x1="7.42" y1="46.43" x2="84.81" y2="46.43" xlink:href="#linear-gradient"/>
    <linearGradient id="linear-gradient-46" x1="5.87" y1="37.2" x2="78.49" y2="37.2" xlink:href="#linear-gradient"/>
    <linearGradient id="linear-gradient-47" x1="77.75" y1="44.43" x2="77.72" y2="44.41" gradientUnits="userSpaceOnUse">
      <stop offset="0" stop-color="#218180"/>
      <stop offset=".09" stop-color="#1d7b7a"/>
      <stop offset=".67" stop-color="#085d5b"/>
      <stop offset="1" stop-color="#015250"/>
    </linearGradient>
    <linearGradient id="linear-gradient-48" x1="77.76" y1="44.42" x2="77.71" y2="44.42" xlink:href="#linear-gradient-47"/>
    <radialGradient id="radial-gradient" cx="73.38" cy="32.83" fx="73.38" fy="32.83" r="1.17" gradientUnits="userSpaceOnUse">
      <stop offset="0" stop-color="#e9292a"/>
      <stop offset=".7" stop-color="#c5222a"/>
      <stop offset="1" stop-color="#b5202a"/>
    </radialGradient>
    <radialGradient id="radial-gradient-2" cx="75.6" cy="34" fx="75.6" fy="34" r="7.58" xlink:href="#radial-gradient"/>
    <linearGradient id="linear-gradient-49" x1="77.71" y1="44.42" x2="77.76" y2="44.42" xlink:href="#linear-gradient-47"/>
    <linearGradient id="linear-gradient-50" x1="81.52" y1="72.94" x2="72.46" y2="63.64" xlink:href="#linear-gradient"/>
    <linearGradient id="linear-gradient-51" x1="55.78" y1="64.33" x2="74.11" y2="64.33" xlink:href="#linear-gradient"/>
    <linearGradient id="linear-gradient-52" x1="87.31" y1="74.66" x2="65.58" y2="67.82" xlink:href="#linear-gradient"/>
    <linearGradient id="linear-gradient-53" x1="48.72" y1="77.46" x2="27.16" y2="77.22" xlink:href="#linear-gradient"/>
  </defs>
  <g id="Layer_1-2" data-name="Layer 1">
    <g>
      <path class="cls-41" d="m391.73,68.75c-.8-5.21-2.02-10.04-7.41-12.16-2.55-1-5.39-1.38-8.06-1.95-3.04-.66-6.09-1.4-9.18-1.77-6.74-.8-13.34.99-19.63,3.25-2.85,1.02-5.72,2.09-8.18,3.89-1.67,1.22-3.11,2.67-4.48,4.2.3-9.66.77-19.32,1.4-28.96,1.95-1.35,3.81-2.85,5.53-4.49.45-.43.73-1.13.73-1.75s-.27-1.34-.73-1.75c-.47-.43-1.09-.76-1.75-.73-.67.03-1.27.26-1.75.73-.99.95-2.03,1.84-3.11,2.68-.27.21-.55.41-.83.61-.19-.13-.39-.24-.62-.32-.35-.16-.67-.36-.98-.58-.3-.26-.59-.54-.84-.85-.32-.44-.65-.89-1.04-1.28-.3-.3-.65-.59-1.03-.79-.65-.35-1.16-.45-1.88-.53-.59-.06-1.35.32-1.75.73-.43.43-.75,1.14-.73,1.75.03.64.24,1.31.73,1.75.17.13.33.26.5.39.21.12.43.2.66.26.16.16.33.32.47.5.45.6.89,1.19,1.47,1.67.65.54,1.33.93,2.05,1.28-.7,10.51-1.21,21.02-1.51,31.55-.15,5.22-.23,10.35.5,15.53.78,5.51,1.64,10.95,1.65,16.54,0,3.19,4.97,3.2,4.96,0-.01-4.23-.46-8.41-1.05-12.58,2.93,3.73,6.93,6.35,11.35,8,5.43,2.03,11.37,2.44,17.11,2.48,5.62.04,11.86.22,17.3-1.45,4.88-1.5,8.52-4.95,10.27-9.75,1.92-5.27.7-10.74-.12-16.09Zm-3.8,10.83c-.26,4.14-2.47,8.09-6.37,9.77-4.17,1.8-9.25,1.62-13.7,1.71-4.79.1-9.68.08-14.4-.88-4.74-.96-9.27-2.87-12.67-6.41-3.65-3.8-4.3-8.21-4.15-13.31,0-.27-.03-.51-.09-.74,2.82-3.36,5.65-6.27,9.83-7.94,4.61-1.84,9.54-3.55,14.5-4.04,5.07-.51,9.92.78,14.83,1.84,4.15.9,9.17,1.1,10.44,5.94.58,2.23.79,4.59,1.14,6.86.37,2.38.78,4.77.63,7.19Z"/>
      <path class="cls-1" d="m308.09,77.52c-.36-6.07,1.04-12.85-1.64-18.53-1.13-2.38-3.02-4.42-5.47-5.44-2.93-1.22-6.5-1.06-9.62-1.29-6.86-.5-13.75-.89-20.63-.67-3.85.12-7.7.46-11.51,1.02-3.31.49-6.61,1.3-8.99,3.82-3.97,4.21-4.92,11.01-4.61,16.81-.31.72-.32,1.57.2,2.34,0,.04,0,.09.01.13.09.77.46,1.36.97,1.75.46,2.05-.44,4.72-.43,6.58.03,2.8,1.12,5.35,3.02,7.4,4,4.34,10.69,5.5,16.27,6.14,6.75.77,13.64.5,20.41.28,5.96-.19,13.98.37,18.84-3.75,4.92-4.18,3.53-10.96,3.19-16.59Zm-6.2,12.63c-1.84,1.81-5.13,2.13-7.58,2.35-2.87.26-5.77.32-8.65.41-5.75.18-11.55.36-17.3-.05-5.03-.35-12.49-1.01-15.86-5.37-1.84-2.38-.97-5.12-.77-7.86.15-2.08-.15-4.04-1.14-5.78-.33-4.42.01-9.74,2.57-13.26,1.5-2.06,3.79-2.63,6.19-3.03,3.08-.52,6.21-.79,9.33-.94,5.79-.29,11.6-.11,17.39.23,2.83.17,5.66.38,8.49.6,2.54.2,5.03.22,6.68,2.45,3.08,4.16,1.62,10.56,1.77,15.36.07,2.47.36,4.93.53,7.39.18,2.49.27,5.58-1.67,7.49Z"/>
      <path class="cls-40" d="m218.18,31.21c.3-3.18-4.66-3.15-4.96,0-.8,8.37-1.23,16.78-1.26,25.19-.03,8.35.59,16.72.06,25.06-.06.92-.13,1.84-.22,2.75-.07.73,0,2.31-.37,2.95-.54.9-3.22,1.63-4.29,2.01-3.42,1.22-7.01,1.93-10.63,2.25-7.33.65-15.06.31-22.35-.7-4.34-.61-8.24-2.51-12.03-4.63-.71-.4-1.48-.81-2.07-1.38-.11-.11-.26-.3-.4-.43,1.92-.78,3.81-2.15,5.61-3.14,2.4-1.33.77-5.53-1.91-4.53-3.47,1.29-8.22,3.05-11.56.49-1.33-1.02-2.44-2.3-4.28-1.37-1.41.71-1.96,2.58-1.08,3.91.5.76,1.22,1.09,1.93,1.12.28.19.56.38.66.45.49.35.98.65,1.52.91,1.2.58,2.45.91,3.76,1.08-.06.43-.04.9.08,1.42.88,3.81,4.88,5.62,8.03,7.23,4.15,2.13,8.28,3.49,12.93,3.97,4.42.46,8.89.75,13.33.82,8.27.12,18.12-.57,25.31-5.14,1.63-1.04,2.15-2.45,2.41-4.28.33-2.3.53-4.62.65-6.95.25-5.01.1-10.02-.01-15.03-.27-11.37.06-22.71,1.15-34.04Z"/>
      <g>
        <g>
          <path class="cls-50" d="m306.84,64.93c-.83-3.94-2.82-6.97-5.93-8.74-2.31-1.32-5.96-2.66-10.62-3.12-2.6-.26-6.21-.62-11.87-.62-7.38,0-13.27.2-15.92.62-6.35,1.03-10.26,3.77-12.18,7.49-1.32,2.54-2.19,7.17-2.19,13.11,0,4.98.03,8.48.31,10.3.69,4.43,2.42,7.42,5.31,9.37,2.37,1.6,6.35,2.95,11.24,3.43,2.03.2,6.32.31,12.8.31,8.69,0,14.91-.37,18.73-1.25,4.57-1.06,7.91-3.61,9.37-7.49,1-2.66,1.56-7.45,1.56-14.05,0-4.4-.22-7.48-.62-9.37Zm-15.49,21.71c-2.03,1.13-6.52,1.69-13.5,1.69s-11.42-.6-14.01-1.8c-1.95-.9-3.22-2.47-3.83-4.72-.34-1.28-.5-3.41-.5-6.42,0-6.64,1.58-10.67,4.72-12.09,2.33-1.05,6.88-1.58,13.67-1.58,6.26,0,10.71.57,13.33,1.69,3.12,1.35,4.67,5.18,4.67,11.48s-1.52,10.06-4.56,11.76Z"/>
          <path class="cls-31" d="m315.49,61.6c-1.09-5.18-3.68-8.92-7.76-11.25-3.04-1.73-7.62-2.89-13.73-3.49-3.41-.34-8.83-.5-16.26-.5-9.68,0-16.26.28-19.75.84-8.33,1.35-13.75,4.46-16.26,9.34-1.73,3.34-2.59,8.91-2.59,16.71,0,6.52.18,10.99.56,13.39.9,5.81,3.24,10,7.03,12.54,3.12,2.1,7.88,3.47,14.29,4.11,2.66.26,8.25.39,16.77.39,11.4,0,19.61-.58,24.64-1.74,6-1.39,9.96-4.64,11.87-9.73,1.31-3.49,1.97-9.56,1.97-18.23,0-5.77-.27-9.9-.79-12.38Zm-9.89,26.52c-1.46,3.88-4.48,6.36-9.05,7.42-3.83.88-10.09,1.33-18.78,1.33-6.49,0-10.75-.1-12.77-.31-4.89-.48-8.52-1.53-10.89-3.13-2.89-1.95-4.67-5.13-5.36-9.56-.29-1.82-.43-5.23-.43-10.2,0-5.94.66-10.19,1.98-12.73,1.91-3.72,6.05-6.09,12.39-7.12,2.66-.43,7.67-.64,15.05-.64,5.66,0,9.79.13,12.39.39,4.66.46,8.15,1.34,10.47,2.66,3.12,1.77,5.09,4.63,5.91,8.57.4,1.89.6,5.04.6,9.44,0,6.61-.5,11.23-1.5,13.89Z"/>
        </g>
        <g>
          <path class="cls-14" d="m216.11,60.26s.26,21.27-.48,24.04c-.21.78-1.45,4.21-2.14,5-2.28,2.64-6.9,4.97-12.61,5.71-2.52.34-7.13.24-13.56.24-9.57,0-16.67-.16-20.94-1.19-5.19-1.25-8.47-5.27-9.52-10.23-.39-1.82-.44-9.04-.44-9.04h12.74c.32,2.87.88,4.71,1.69,5.49,1.8,1.76,6.84,2.64,15.14,2.64s14.08-.9,16.19-2.7c1.49-1.29,2.23-4.75,2.23-10.39V22.47c4.14-.02,12.07.03,12.07.05l-.36,37.74Z"/>
          <path class="cls-35" d="m228.82,22.47v47.88c0,6.22-.18,10.66-.53,13.32-.71,5.36-2.27,9.42-4.7,12.2-3.21,3.72-8.85,6.11-16.9,7.16-3.56.47-9.88.7-18.95.7-13.5,0-23.26-.72-29.28-2.17-7.32-1.76-11.72-6.14-13.21-13.14-.66-3.13-1-7.16-1-12.09,0-.49,0-1.01,0-1.56h12.14v.23c0,.63.01,1.24.03,1.83h0c.07,2.68.3,4.93.68,6.74,1.05,4.97,4.17,8.07,9.36,9.32,4.27,1.03,11.19,1.54,20.76,1.54,6.43,0,10.92-.16,13.44-.5,5.71-.74,9.71-2.44,11.98-5.08.69-.79,1.29-1.73,1.78-2.82.11-.4.26-.96.47-1.75.74-2.76.5-23.75.5-23.75V22.47h13.4Z"/>
          <polygon class="cls-51" points="157.09 83.58 169.08 74.77 144.48 74.77 157.09 83.58"/>
          <polygon class="cls-37" points="215.52 31.32 228.61 22.52 204.45 22.52 215.52 31.32"/>
        </g>
        <g>
          <polygon class="cls-22" points="333.75 95.17 323.98 102.33 343.17 102.33 333.75 95.17"/>
          <path class="cls-19" d="m390.52,65.87c-.9-3.22-3.06-5.59-5.93-7.18-4.12-2.28-12.58-3.75-24.36-3.75-5.4,0-9.39,1.28-11.87,2.19-3.83,1.39-13.46,9.16-15.61,11.72l-.03,12.3c1.38,1.72,9.31,9.68,10.79,10.34,3.33,1.47,8.87,3.42,17.65,3.42,7.24,0,12.81-.3,16.24-.94,6.12-1.14,10.42-4.04,12.18-7.49,1.25-2.44,1.56-6.54,1.56-11.87,0-4.01-.14-6.99-.62-8.74Zm-13.37,20.26c-2.37,1.5-7.13,2.25-14.29,2.25-4.8,0-8.21-.21-10.24-.62-4.28-.86-6.85-2.72-7.71-5.57-.38-1.24-.56-3.53-.56-6.87,0-6.34,1.35-10.22,4.05-11.65,2.4-1.27,7.11-1.91,14.12-1.91,6.11,0,10.54.54,13.28,1.63,2.1.83,3.47,2.38,4.11,4.67.38,1.35.57,3.52.57,6.52,0,6.3-1.11,10.15-3.32,11.53Z"/>
          <path class="cls-55" d="m400.84,74.93c0,7.88-.67,13.61-2.03,17.22-1.91,5.1-6.18,8.49-12.81,10.18-3.71.94-9.48,1.41-17.31,1.41-8.36,0-14.44-.84-18.23-2.52-.52-.24-1-.48-1.44-.74-1.61-.97-3.17-2.73-4.67-5.29h-1.18v7.15h-9.38l-1.03-23.04c1.38,1.72,11.07,11.9,12.56,12.56,3.33,1.47,4.79,2.19,15.61,2.55,7.23.24,12.56-.32,15.99-.95,6.12-1.14,10.06-3.43,11.83-6.89,1.25-2.44,1.87-6.31,1.87-11.64,0-4.01-.24-6.89-.72-8.63-.9-3.22-2.79-5.63-5.66-7.23-4.12-2.28-12.07-3.42-23.84-3.42-5.4,0-9.24.92-11.72,1.82-3.83,1.39-13.76,9.9-15.91,12.47l1.23-44.39h10.36v29.59h.9c2.32-3.78,5.64-6.3,9.96-7.53.33-.1.68-.18,1.06-.27,2.73-.61,6.68-.92,11.83-.92,12.75,0,21.36,1.68,25.82,5.06,3.12,2.37,5.16,5.93,6.14,10.69.52,2.59.79,6.84.79,12.77Z"/>
          <path class="cls-56" d="m323.99,25.54v76.79h9.8l.06-21.5.03-12.3.11-42.99h-10Z"/>
          <polygon class="cls-11" points="333.96 32.96 344.31 25.54 323.98 25.54 333.96 32.96"/>
        </g>
      </g>
      <g>
        <path class="cls-6" d="m222.33,125.85h-8.99l-5.52,26.07h-7.24l5.5-26.07h-9.11l1.27-5.86h25.36l-1.27,5.86Z"/>
        <path class="cls-26" d="m232.04,151.72c-.27.08-.58.15-.92.22-.35.08-.72.15-1.11.21-.39.07-.8.12-1.22.16-.42.04-.84.05-1.26.05-.99,0-1.84-.13-2.55-.39-.7-.26-1.29-.62-1.75-1.09-.46-.47-.8-1.02-1.01-1.67-.22-.65-.32-1.35-.32-2.13,0-.33.02-.69.05-1.09.04-.4.09-.82.15-1.26.06-.44.13-.88.21-1.33s.17-.89.26-1.3c.06-.25.16-.72.3-1.39.14-.67.3-1.45.49-2.33.19-.88.38-1.8.59-2.77.21-.97.4-1.9.59-2.77s.35-1.65.49-2.33c.14-.67.24-1.14.3-1.39h7.13l-2.72,12.82c-.12.52-.25,1.1-.38,1.75s-.2,1.21-.2,1.68c0,.56.18.96.53,1.18.36.22.76.33,1.23.33.38,0,.78-.04,1.17-.12.39-.08.75-.19,1.08-.32-.19.89-.38,1.77-.56,2.64-.18.87-.36,1.75-.56,2.64Zm-2.11-26.2l-5.79-7.23h5.88l4.65,7.23h-4.74Z"/>
        <path class="cls-4" d="m274.49,134.56c0,.22-.02.52-.07.89s-.1.76-.17,1.16-.14.79-.21,1.17-.14.7-.2.97l-2.78,13.18h-7.06l2.78-13c.09-.47.18-.96.27-1.47.09-.5.13-.89.13-1.16,0-.74-.18-1.32-.54-1.73-.36-.41-.91-.61-1.65-.61-.56,0-1.17.19-1.8.58-.64.39-1.24.89-1.81,1.51-.57.62-1.08,1.33-1.51,2.14-.44.8-.75,1.62-.92,2.47l-2.34,11.27h-7.1l2.78-13c.09-.47.18-.96.27-1.47s.13-.89.13-1.16c0-.74-.18-1.32-.54-1.73-.36-.41-.91-.61-1.64-.61-.58,0-1.19.19-1.83.58-.64.39-1.24.9-1.8,1.52-.56.63-1.06,1.35-1.49,2.15-.43.8-.74,1.62-.91,2.45l-2.4,11.27h-7.12l3.38-15.63c.13-.68.27-1.37.4-2.06.13-.69.25-1.35.36-1.98.1-.63.2-1.22.28-1.76.08-.54.14-1,.19-1.37h6.95c-.04.41-.09.85-.14,1.3-.05.45-.1.89-.16,1.3-.05.41-.1.78-.15,1.1-.04.32-.08.55-.11.68h.09c.55-.71,1.15-1.37,1.79-1.97.65-.6,1.33-1.12,2.04-1.56.71-.44,1.45-.78,2.2-1.04.76-.25,1.51-.38,2.27-.38,1.78,0,3.12.46,4.03,1.38s1.43,2.2,1.58,3.83c.56-.77,1.18-1.48,1.85-2.11.67-.64,1.38-1.19,2.14-1.65.76-.46,1.54-.82,2.36-1.07.82-.25,1.65-.38,2.49-.38,1.88,0,3.31.52,4.26,1.55.96,1.03,1.44,2.51,1.44,4.44Z"/>
        <path class="cls-7" d="m302.08,151.92h-7.84l-3.01-22.8h7.01l.91,12.62c.03.28.06.62.08,1.02.02.4.04.82.06,1.25.01.43.03.86.03,1.28,0,.42,0,.79-.03,1.1h.09c.12-.31.26-.66.42-1.04s.33-.77.51-1.18.36-.82.55-1.23c.18-.41.36-.8.52-1.17l6.12-12.67h7.75l-13.18,22.8Z"/>
        <path class="cls-49" d="m324.9,151.72c-.27.08-.58.15-.92.22-.35.08-.72.15-1.11.21-.39.07-.8.12-1.22.16-.42.04-.84.05-1.26.05-.99,0-1.84-.13-2.55-.39s-1.29-.62-1.75-1.09c-.46-.47-.8-1.02-1.01-1.67-.22-.65-.32-1.35-.32-2.13,0-.33.02-.69.05-1.09.04-.4.09-.82.15-1.26.06-.44.13-.88.21-1.33.08-.45.17-.89.26-1.3.06-.25.16-.72.3-1.39.14-.67.3-1.45.49-2.33.19-.88.38-1.8.59-2.77.21-.97.4-1.9.59-2.77.19-.88.35-1.65.49-2.33.14-.67.24-1.14.3-1.39h7.13l-2.72,12.82c-.12.52-.25,1.1-.38,1.75s-.2,1.21-.2,1.68c0,.56.18.96.53,1.18.36.22.76.33,1.23.33.38,0,.78-.04,1.17-.12.39-.08.75-.19,1.08-.32-.19.89-.38,1.77-.56,2.64-.18.87-.36,1.75-.56,2.64Zm2.32-29.94c0,.58-.11,1.1-.33,1.56-.22.46-.52.86-.9,1.19-.38.33-.82.59-1.34.77-.51.18-1.07.27-1.66.27s-1.09-.08-1.57-.26c-.48-.17-.9-.41-1.25-.71-.35-.31-.62-.66-.82-1.08-.2-.41-.3-.87-.3-1.36,0-.58.11-1.1.32-1.56.21-.46.51-.86.89-1.19.38-.33.83-.59,1.35-.77.52-.18,1.08-.27,1.69-.27.56,0,1.08.08,1.56.25.47.17.89.41,1.24.71.35.3.62.66.82,1.08.2.41.3.87.3,1.36Z"/>
        <path class="cls-13" d="m350.86,135c0,1.17-.25,2.25-.75,3.23s-1.33,1.82-2.49,2.54c-1.16.71-2.71,1.27-4.64,1.68-1.93.41-4.33.64-7.21.68-.03.09-.04.17-.04.24v.21c0,.46.07.92.22,1.38.15.46.4.88.77,1.25.36.37.84.67,1.44.9.59.23,1.34.34,2.23.34.53,0,1.12-.05,1.75-.15.63-.09,1.27-.24,1.93-.42.65-.18,1.3-.41,1.95-.67.65-.26,1.24-.55,1.79-.86l-1.09,5.25c-.46.24-.99.47-1.58.69-.59.22-1.24.42-1.93.6-.69.18-1.42.32-2.2.42-.78.1-1.58.16-2.39.16-1.72,0-3.2-.25-4.43-.76-1.23-.5-2.24-1.18-3.04-2.04-.79-.85-1.38-1.85-1.75-2.99s-.56-2.36-.56-3.65c0-1.95.32-3.79.97-5.55.65-1.75,1.57-3.29,2.76-4.61,1.19-1.32,2.63-2.37,4.32-3.15s3.57-1.17,5.64-1.17c1.5,0,2.78.18,3.83.54,1.05.35,1.91.83,2.58,1.43.67.6,1.16,1.29,1.47,2.06.31.77.47,1.57.47,2.4Zm-13.18,25.62c-.99,0-1.82-.3-2.46-.89s-.97-1.31-.97-2.16c0-.89.33-1.61.98-2.17.65-.56,1.47-.83,2.45-.83s1.81.28,2.44.84c.63.57.95,1.28.95,2.16s-.32,1.6-.95,2.18c-.63.58-1.44.87-2.44.87Zm9.11-35.11l-2.58-4.23-4.39,4.23h-4.7l6.75-7.28h5.57l3.74,7.28h-4.39Zm-2.63,9.57c0-.55-.2-1-.61-1.37-.41-.36-.98-.55-1.73-.55-.65,0-1.28.14-1.88.42-.6.28-1.15.67-1.65,1.17s-.92,1.09-1.28,1.78c-.36.69-.62,1.44-.8,2.24,2.67.03,4.66-.27,5.98-.91,1.31-.64,1.97-1.57,1.97-2.78Z"/>
        <path class="cls-29" d="m371.23,135.38c-.5-.39-1.16-.72-1.96-1-.8-.28-1.67-.42-2.61-.42-1.08,0-2.06.25-2.94.76-.87.5-1.62,1.16-2.23,1.96-.61.8-1.08,1.7-1.4,2.69-.33.99-.49,1.97-.49,2.94,0,1.53.36,2.71,1.07,3.54.71.83,1.78,1.25,3.21,1.25.45,0,.91-.04,1.39-.13.48-.09.96-.21,1.44-.37.47-.16.93-.33,1.37-.52.44-.19.84-.4,1.19-.62l-1.09,5.39c-1.01.52-2.09.92-3.23,1.21-1.14.29-2.29.43-3.43.43-1.48,0-2.79-.23-3.91-.69-1.12-.46-2.06-1.11-2.82-1.94-.76-.83-1.33-1.82-1.7-2.97s-.57-2.41-.57-3.8c0-1.28.15-2.52.43-3.73.29-1.21.71-2.35,1.26-3.42.55-1.07,1.23-2.06,2.04-2.96.81-.91,1.74-1.68,2.78-2.34,1.05-.66,2.2-1.16,3.47-1.53,1.27-.36,2.64-.55,4.11-.55.68,0,1.33.04,1.94.12.61.08,1.16.18,1.67.31s.95.27,1.34.42c.39.16.7.3.94.43l-1.27,5.52Z"/>
      </g>
      <g>
        <path class="cls-38" d="m589.11,57.96c-5.73-2.81-11.5-6.29-17.61-8.18-5.92-1.83-12.37-.86-18.44-.53-5.68.32-12.16.01-17.34,2.74-4.93,2.6-6.95,9.2-6.26,14.46.74,5.6,4.83,8.82,10.26,9.35,2.92.28,5.79.38,8.7.86,2.96.48,5.9.8,8.9.93,2.96.12,5.94.12,8.88.51,2.36.31,6.44.69,7.58,3.17.96,2.09,1.6,5.92-.11,7.68-1.8,1.85-4.47,3.35-6.77,4.48-3.1,1.52-6.31,1.79-9.71,1.8-3.5.01-6.99-.01-10.49-.02-3.54,0-6.8-.14-10.17-1.33-1.64-.58-3.24-1.25-4.85-1.89-.11-.05-.23-.09-.35-.13.64-.16,1.27-.36,1.89-.59,2.93-1.1,1.82-5.64-1.32-4.78-1.13.31-2.52.54-3.87.89-2.71.26-5.42-.25-7.93-1.64-2.79-1.55-5.3,2.73-2.5,4.28,1.72.95,3.56,1.62,5.44,2.01.04.35.13.7.29,1.05.71,1.48,2.46,1.88,3.88,2.45,2.99,1.19,5.97,2.53,9.05,3.5,3.02.96,6.13,1.14,9.27,1.15,3.65.02,7.29.02,10.94.02,3.08,0,6.21-.04,9.18-.95,2.83-.86,5.46-2.33,7.89-4,2.38-1.64,4.97-3.36,5.8-6.31.74-2.65.19-6.1-.67-8.68-.97-2.89-2.94-4.62-5.75-5.66-6.14-2.27-12.89-1.61-19.29-2.18-3.32-.3-6.58-1.1-9.91-1.34-2.61-.19-6.04.24-7.96-1.95-2.15-2.45-1.58-6.16-.62-8.98,1.11-3.25,3.66-4.39,6.85-5.03,3.74-.75,7.68-.7,11.48-.91,3.8-.21,7.65-.6,11.45-.48,3.64.11,6.86,1.32,10.08,2.85-.87.64-1.64,1.42-2.29,2.33-1.86,2.6,2.44,5.08,4.28,2.5,1.11-1.55,3.23-2,4.93-1.24,2.1.94,3.53,2.25,5.94,2.42,2.42.18,3.43-3.55,1.25-4.62Z"/>
        <path class="cls-48" d="m500.97,50.64c2.4-6.36.78-14.41-6.7-16.08-3.85-.86-8-.85-11.93-1.12-4.18-.29-8.36-.54-12.54-.75-4.32-.22-8.64-.39-12.96-.52-3.89-.12-7.79-.26-11.66.32-6.35.95-12.59,4.71-14.52,10.84-.18,0-.35.04-.53.09-3,.88-5.72,2.4-8.1,4.42-.3.25-.54.73-.64,1.09-.15.54-.09,1.11.13,1.62.17.41.41.72.76.99.4.31.98.59,1.5.53,1.16-.13,2.22-.39,3.25-.98.92-.53,1.62-1.24,2.25-2.06.15-.07.3-.16.45-.23.33-.13.66-.24,1-.35.61.55,1.53.72,2.36.52,1.85,1.05,3.8,1.91,5.88,2.44,1.25.32,2.75-.41,3.05-1.73.29-1.29-.39-2.7-1.73-3.05-.88-.23-1.73-.52-2.57-.85-.8-.36-1.58-.76-2.33-1.21,1.84-6.05,10.13-7.5,15.67-7.55,8.53-.07,17.11.49,25.62,1.01,4.32.26,8.63.57,12.94.92,3.44.28,6.84.75,7.46,4.77.58,3.72-1.63,7.44-3.29,10.6-1.59,3.03-3.45,6.04-7.11,6.54-2.14.29-2.35,3.62-.59,4.53,2.08,1.09,4.7,2.32,5.87,4.49,1.46,2.7-.56,6.66-1.44,9.29-.85,2.56-1.56,6.78-3.89,8.42-2.48,1.75-6.27,2.31-9.19,2.75-6.7,1.02-13.64.63-20.38.46-6.98-.18-14.04-.32-20.99-1-3.28-.32-6.29-1.34-8.56-3.83-.55-.6-1.04-1.27-1.42-1.99-.33-.63-.36-.79.03-.99,2.37-.31,4.75-1.23,6.93-2.46,2.45-1.37.8-5.31-1.91-4.53-1.85.53-4.57,1.12-6.76,2.24-1.2-.02-2.36-.37-3.36-1.26-2.39-2.1-5.91,1.39-3.51,3.51,1.05.92,2.17,1.56,3.33,1.98-.44,3.24,2.42,6.59,4.74,8.48,3.05,2.48,6.63,3.44,10.49,3.81,4.57.43,9.2.58,13.79.76,8.85.36,17.96.97,26.77-.1,4.03-.49,8.39-1.23,11.98-3.22,3.7-2.05,4.8-6.19,6.1-9.93,1.39-4.01,3.74-9.02,2.26-13.29-.78-2.24-2.35-3.94-4.2-5.32,4.07-2.99,6.54-8.64,8.2-13.02Z"/>
        <g>
          <g>
            <path class="cls-36" d="m499.5,47.76c-.11.91-.41,2.11-.62,3.12-.2.92-.39,1.39-.62,2.19-.32,1.07-.54,1.95-.94,2.81-.1.21-.21.42-.31.62-.17.32-.13.64-.31.94-.36.58-1.25,1.36-1.56,1.87-1.87,3.12-7.91,4.34-7.81,4.37l-14.05.62-6.68-9.18h6.49c2.98,0,5.31-.07,6.98-.2.97-.08,1.71-.18,2.24-.3,3.6-.79,5.76-2.82,6.48-6.08.97-4.57-3.01-6.78-11.93-6.64l-7.25.15-4.17.08c-.22,0-.36,0-.41.01h-.29s-2.05.15-2.05.15c-9.73.17-15.3.81-16.72,1.92-.93.79-1.7,2.06-2.31,3.83-.18.93-.5,2.34-.95,4.22l-10.64-6.38c.04-.08-.03-.24,0-.31.16-.38.45-.89.62-1.25.17-.35.45-.61.62-.94.72-1.3,1.27-2.23,2.19-3.12,2.82-2.66,7.52-4.63,13.74-5.31,5.29-.57,12.61-.94,21.86-.94,6.33,0,10.74.17,13.11.31,5.91.39,10.06,1.34,12.18,2.81.26.2.71.4.94.62,2.05,2.01,2.71,5.54,2.19,9.99Z"/>
            <path class="cls-30" d="m495.12,73.05c-.07.6-.19,1.18-.31,1.87-.02.11-.25,1.59-.31,1.87-.2.9-.86,3.17-.94,3.43-.15.52-.45,1.09-.62,1.56-.86,2.37-1.59,4.04-2.81,5.31-3.13,3.36-10.26,5.85-20.3,6.56-2.26.17-9.04,0-20.3,0-8.68,0-14.69-.23-18.42-1.25-4.86-1.39-7.49-5.01-7.18-9.99.03-.36.37-1.07.37-1.07l13.26-6.64h0c-.38,1.42-.68,3.6-.9,6.52.15,1.84,1.05,2.94,2.7,3.32,1.84.45,8.28.67,19.35.67l8.94.23c9.71,0,15.1-2.4,16.15-7.2.71-3.22.01-5.16-2.08-5.79-.74-.22-2.12-.39-4.15-.52-2.82-.18-6.89-.27-12.23-.27h-2.7l10.59-7.74-.03-.04,13.75-.64h0c4.72.11,6.51,2.51,6.59,2.61.15.18.49.73.62.94.4.61.77,1.39.94,2.19.06.27,0,1.46,0,1.56.03.74.11,1.54,0,2.5Z"/>
            <path class="cls-57" d="m432.22,45.78c-.07.18-.14.36-.21.54-.15.39-.29.8-.43,1.22-.14.43-.27.86-.39,1.3-.08.3-.17.6-.24.91-.16.62-.31,1.26-.44,1.93l-.13.58h12.3l-10.47-6.49Zm41,18.12l-6.64-8.77-3.92,16.54,10.59-7.74-.03-.04Zm-48.92,17.45l13.26-6.64h-12.21c-.52,2.64-.87,4.85-1.06,6.64Z"/>
            <path class="cls-42" d="m512,46.13c-1.13,5.18-2.76,8.95-4.9,11.3-2.44,2.66-6.19,4.48-11.25,5.46,3.41.86,5.83,1.68,7.25,2.47,2.33,1.42,3.6,3.69,3.83,6.81.11,2.17-.25,5.16-1.07,8.94-1.39,6.42-3.38,10.97-5.96,13.68-4.16,4.46-12.91,7.16-26.22,8.1-3,.22-11.96.34-26.89.34-11.51,0-19.75-.67-24.7-2.03-6.45-1.84-9.47-6.05-9.05-12.66.22-3.26.97-7.87,2.25-13.83h0s10.06,0,10.06,0c-.52,2.64-.87,4.85-1.06,6.64h0c-.04.41-.08.8-.1,1.16-.31,4.98,1.96,8.16,6.83,9.54,3.73,1.02,9.94,1.53,18.62,1.53,11.25,0,18.01-.09,20.28-.25,10.03-.71,16.63-2.75,19.76-6.11,1.22-1.27,2.26-3.09,3.13-5.46.17-.47.34-.97.5-1.49.08-.26.16-.52.24-.79.23-.81.44-1.67.64-2.57.06-.28.12-.56.17-.83.06-.27.11-.53.15-.79.03-.11.04-.23.06-.34.12-.69.22-1.33.29-1.94.11-.95.17-1.8.14-2.54,0-.1,0-.2,0-.29-.01-.15-.03-.29-.04-.43-.03-.28-.08-.55-.14-.82-.17-.79-.46-1.49-.86-2.1-.13-.21-.27-.4-.43-.58-.08-.1-.17-.19-.25-.27-.34-.35-.72-.65-1.16-.92-.13-.08-.29-.15-.45-.22-.23-.11-.49-.22-.78-.34-.1-.04-.2-.08-.31-.11-.2-.08-.41-.16-.64-.24-.83-.29-1.81-.57-2.95-.86h0c-.11-.03-.22-.06-.34-.09,3.81-.74,6.64-2.1,8.48-4.11.4-.44.78-.95,1.13-1.53.18-.29.35-.6.52-.92.1-.2.2-.41.31-.62.4-.86.76-1.82,1.07-2.89.24-.79.46-1.65.66-2.57.22-1.01.38-1.98.48-2.89.53-4.46-.24-7.7-2.29-9.71-.23-.23-.48-.44-.74-.64-2.12-1.47-6.14-2.4-12.04-2.8-2.38-.15-6.73-.22-13.07-.22-9.24,0-16.51.29-21.8.85-6.22.67-10.75,2.35-13.57,5-.92.89-1.73,1.99-2.45,3.29-.18.33-.36.67-.52,1.02-.17.36-.33.72-.49,1.09-.03.08-.06.15-.1.24-.07.18-.14.36-.21.54-.15.39-.29.8-.43,1.22-.14.43-.27.86-.39,1.3-.08.3-.17.6-.24.91-.15.62-.3,1.26-.43,1.93l-.13.58h-9.98l1.01-4.61c1.42-7.05,3.75-12.16,6.97-15.3,3.75-3.53,9.75-5.74,18.01-6.64,7.01-.75,16.65-1.13,28.92-1.13,8.4,0,14.18.1,17.33.28,7.84.53,13.17,1.76,15.98,3.71,4.09,3.04,5.21,8.89,3.38,17.55Z"/>
            <polygon class="cls-10" points="442.68 52.26 420.41 52.26 432.22 45.78 442.68 52.26"/>
            <polygon class="cls-46" points="437.57 74.71 424.3 81.35 424.3 81.36 424.3 81.36 415.29 74.72 415.29 74.71 437.57 74.71"/>
            <polygon class="cls-47" points="473.25 63.94 462.67 71.67 466.58 55.13 473.22 63.9 473.25 63.94"/>
          </g>
          <g>
            <path class="cls-27" d="m525.81,84.99s0,.01,0,.02"/>
            <path class="cls-18" d="m579.15,56.63c-2.95-3.9-7.66-5.16-10.49-5.91-.31-.08-.59-.16-.84-.23-3.46-.98-8.77-.72-19.34-.2-4.77.23-6.79.43-9.18,1.6-3.63,1.77-6.12,4.32-7.4,7.58-1.36,3.47-1.67,8.39.73,11.54,3.28,4.31,11.54,4.21,26.55,4.03,8.61-.11,11.47-.05,14.16,1.84,4.9,3.45,3.98,8.74,2.34,12.57-2.04,4.77-7.22,6.35-11.38,7.61-3.18.97-7.18,1.11-14.92,1.07-1.84,0-3.39-.22-5.36-.48-1.5-.2-3.2-.43-5.4-.62-4.6-.39-6.37-.96-8.87-1.85-1.74-.62-2.48-2.1-3.07-3.29-.1-.21-.2-.4-.3-.59l8.66-5.47-.38-.6-8.77,5.54-9.99-5.58-.34.61,10.08,5.64c.13.22.26.48.4.76.61,1.23,1.45,2.92,3.46,3.64,2.55.91,4.36,1.49,9.04,1.89,2.19.19,3.88.42,5.37.62,1.99.27,3.56.48,5.45.49.73,0,1.43,0,2.1,0,6.47,0,10.07-.21,13.03-1.11,4.3-1.31,9.65-2.93,11.82-8.01,1.74-4.07,2.71-9.7-2.58-13.42-3-2.11-6.39-2.07-14.57-1.97-15.89.19-23.03.12-25.98-3.75-2.55-3.35-1.6-8.4-.64-10.86,1.21-3.09,3.59-5.51,7.06-7.2,2.28-1.11,4.15-1.29,8.91-1.53,10.5-.51,15.77-.77,19.12.18.25.07.54.15.85.23,2.71.72,7.17,1.92,9.99,5.5l-6.72,5.54.45.54,6.83-5.63,11.88,5.58.3-.64-12.06-5.66Z"/>
            <path class="cls-44" d="m587.05,70.83c-3.04-2.06-8.01-3.13-14.91-3.2-14.93-.04-24.15-.19-27.68-.45-3.27-.22-4.64-1.44-4.11-3.66.41-2.14,3.11-3.53,8.1-4.16,1.98-.18,5.16-.28,9.51-.28,6.75,0,10.92.53,12.49,1.58.45.41.73,1.27.85,2.59h10.59c-.54-1.91-1.71-4.86-3.99-7.29-5.01-5.35-12.31-5.53-19.66-5.59-10.34-.09-20.15-.18-24.62,6.58-2.76,4.18-3.33,10.72-.33,14.35,2.46,2.98,6.89,3.12,15.76,3.4,4.79.15,7.69-.18,15.67.17,4.74.21,7.85.51,10.06,2.86,1.86,1.99,2.19,4.48,2.3,5.26.6,4.56-2.07,8.03-2.66,8.79-3.02,3.92-7.45,4.94-11.61,5.89-3.72.85-6.56.81-11.44.75-2.09-.03-6-.16-11.11-.92-7.57-1.11-11.39-1.72-13.27-4.31-.71-.97-2.09-3.41-1.17-8.17h-10.88c-1.27,6.22-.38,10.76,2.7,13.61,2.33,2.37,6.77,3.88,13.33,4.56,3,.3,8.44.45,16.31.45,15.37,0,25.76-1.07,31.17-3.21,6.11-2.43,10.05-7.71,11.81-15.81,1.39-6.52.32-11.12-3.2-13.78Z"/>
            <path class="cls-34" d="m592.05,63.24h-10.17c-.54-1.91-1.71-4.86-3.99-7.29-5.01-5.35-12.31-5.53-19.66-5.59-10.34-.09-20.15-.18-24.62,6.58-2.76,4.18-3.33,10.72-.33,14.35,2.46,2.98,6.89,3.12,15.76,3.4,4.79.15,7.69-.18,15.67.17,4.74.21,7.85.51,10.06,2.86,1.86,1.99,2.19,4.48,2.3,5.26.6,4.56-2.07,8.03-2.66,8.79-3.02,3.92-7.45,4.94-11.61,5.89-3.72.85-6.56.81-11.44.75-2.09-.03-6-.16-11.11-.92-7.57-1.11-11.39-1.72-13.27-4.31-.71-.97-2.09-3.41-1.17-8.17h9.88c-.41,3.04,1.52,4.91,5.8,5.63,1.42.3,4.74.45,9.96.45,4.91,0,8.21-.1,9.9-.29,4.88-.6,7.61-2.17,8.21-4.72.52-2.51-2.1-4.03-7.88-4.56h-11.42c-9.19.23-15.4.1-18.62-.39-5.18-.71-8.69-2.25-10.52-4.61-2.14-2.63-2.61-6.51-1.41-11.65,1.65-7.91,5.74-13.14,12.26-15.69,4.99-1.84,14.76-2.76,29.31-2.76,7.46,0,12.62.13,15.47.39,6.61.75,11.09,2.29,13.45,4.61,2.03,2.14,2.65,6.08,1.86,11.82Z"/>
            <polygon class="cls-16" points="592.05 63.24 571.28 63.22 578.81 57.02 592.05 63.24"/>
            <polygon class="cls-12" points="514.92 85.01 535.68 85.01 525.95 91.12 514.92 85.01"/>
          </g>
        </g>
        <g>
          <path class="cls-43" d="m409.88,127.03c0,2.21-.75,4.09-2.24,5.63-1.49,1.55-3.51,2.52-6.05,2.94v.09c1.87.36,3.31,1.14,4.32,2.35,1.01,1.21,1.51,2.72,1.51,4.53,0,1.97-.52,3.71-1.56,5.21-1.04,1.5-2.55,2.65-4.52,3.47-1.97.82-4.37,1.22-7.19,1.22-3.15,0-6.02-.61-8.62-1.82l1.22-5.7c1.07.67,2.23,1.19,3.48,1.57,1.25.38,2.5.57,3.73.57,2.02,0,3.59-.41,4.72-1.22,1.13-.82,1.69-1.98,1.69-3.48,0-2.76-2.06-4.14-6.19-4.14h-2.74l1.14-5.39h3.38c2.12,0,3.79-.41,5.01-1.23,1.22-.82,1.82-1.96,1.82-3.43,0-1.1-.39-1.94-1.18-2.52-.79-.58-1.89-.87-3.3-.87-2.23,0-4.49.53-6.79,1.6l1.22-5.7c2.64-.85,5.26-1.27,7.86-1.27,2.9,0,5.16.67,6.79,2.01,1.63,1.34,2.45,3.2,2.45,5.55Z"/>
          <path class="cls-43" d="m445.81,149.18c-.42,1.99-.97,3.81-1.67,5.45-.7,1.65-1.64,3.06-2.83,4.24-1.19,1.18-2.68,2.1-4.47,2.76-1.8.66-4,.99-6.61.99-1.44,0-2.77-.15-3.98-.46-1.22-.31-2.35-.71-3.41-1.21l1.25-5.66c.94.62,1.96,1.14,3.07,1.54,1.11.4,2.29.6,3.52.6,1.16,0,2.17-.16,3.04-.47.87-.31,1.62-.77,2.25-1.38.63-.61,1.15-1.36,1.57-2.26.42-.9.75-1.93,1-3.11l.4-2h-.09c-.39.58-.81,1.12-1.27,1.64s-.97.96-1.53,1.35c-.56.39-1.17.69-1.85.92-.67.23-1.44.34-2.28.34-1.16,0-2.17-.21-3.04-.63-.87-.42-1.6-1.01-2.18-1.77-.59-.76-1.03-1.66-1.33-2.72-.3-1.05-.45-2.22-.45-3.49s.14-2.54.41-3.8c.27-1.25.69-2.45,1.24-3.58.55-1.14,1.24-2.19,2.07-3.15.83-.97,1.8-1.8,2.91-2.5,1.11-.71,2.35-1.26,3.73-1.66,1.38-.4,2.9-.6,4.56-.6.92,0,1.84.03,2.75.1.91.07,1.8.16,2.67.27.87.11,1.7.24,2.48.38s1.51.28,2.18.41l-4.12,19.46Zm-4.98-15.62c-.45-.04-.93-.06-1.44-.06-1.02,0-1.99.25-2.88.76-.9.5-1.68,1.19-2.35,2.07-.67.88-1.2,1.91-1.58,3.09-.39,1.19-.58,2.47-.58,3.83,0,.55.06,1.06.17,1.53.11.47.29.87.52,1.21.24.34.53.61.88.8.35.19.75.29,1.21.29.59,0,1.14-.12,1.64-.36.5-.24.95-.56,1.36-.97.41-.41.77-.88,1.09-1.41s.61-1.1.86-1.69c.25-.59.47-1.2.66-1.81.19-.61.34-1.19.46-1.74l1.18-5.39c-.34-.08-.74-.13-1.19-.17Z"/>
          <path class="cls-43" d="m462.51,151.72c-.27.08-.58.15-.92.22-.35.08-.72.15-1.11.21-.39.07-.8.12-1.22.16-.42.04-.84.05-1.26.05-.99,0-1.84-.13-2.55-.39-.7-.26-1.29-.62-1.75-1.09-.46-.47-.8-1.02-1.01-1.67-.22-.65-.32-1.35-.32-2.13,0-.33.02-.69.05-1.09.04-.4.09-.82.15-1.26.06-.44.13-.88.21-1.33s.17-.89.26-1.3c.06-.25.16-.72.3-1.39.14-.67.3-1.45.49-2.33s.38-1.8.59-2.77c.21-.97.4-1.9.59-2.77.19-.88.35-1.65.49-2.33.14-.67.24-1.14.3-1.39h7.13l-2.72,12.82c-.12.52-.25,1.1-.38,1.75s-.2,1.21-.2,1.68c0,.56.18.96.53,1.18.36.22.76.33,1.23.33.38,0,.78-.04,1.17-.12.39-.08.75-.19,1.08-.32-.19.89-.38,1.77-.56,2.64-.18.87-.36,1.75-.56,2.64Zm2.32-29.94c0,.58-.11,1.1-.33,1.56-.22.46-.52.86-.9,1.19-.38.33-.82.59-1.34.77-.51.18-1.07.27-1.66.27s-1.09-.08-1.57-.26c-.48-.17-.9-.41-1.25-.71-.35-.31-.62-.66-.82-1.08-.2-.41-.3-.87-.3-1.36,0-.58.11-1.1.32-1.56.21-.46.51-.86.89-1.19.38-.33.83-.59,1.35-.77.52-.18,1.08-.27,1.69-.27.56,0,1.08.08,1.56.25.47.17.89.41,1.24.71.35.3.62.66.82,1.08.2.41.3.87.3,1.36Z"/>
          <path class="cls-43" d="m488.31,144.4c-.1.46-.21,1.02-.3,1.67-.1.65-.19,1.33-.27,2.04-.08.7-.15,1.4-.2,2.07-.05.67-.08,1.26-.08,1.75h-7.12c0-.22.01-.51.03-.86.02-.35.05-.71.08-1.07.03-.36.06-.72.1-1.07.04-.35.07-.64.1-.88h-.09c-.43.58-.88,1.14-1.34,1.67s-.97,1-1.54,1.41c-.56.41-1.19.74-1.88.98-.69.25-1.49.37-2.39.37-1.11,0-2.1-.2-2.97-.6-.87-.4-1.6-.98-2.19-1.74-.59-.76-1.05-1.68-1.36-2.77-.31-1.09-.47-2.33-.47-3.71,0-.7.08-1.55.23-2.57.16-1.02.44-2.08.85-3.21.41-1.12.98-2.24,1.7-3.34.73-1.11,1.66-2.1,2.79-2.99,1.14-.89,2.51-1.61,4.12-2.16,1.61-.55,3.51-.83,5.69-.83.85,0,1.7.03,2.55.1.85.07,1.69.16,2.52.27.82.11,1.62.24,2.39.39.77.15,1.49.3,2.16.45l-3.12,14.63Zm-3.32-18.88l-2.58-4.23-4.39,4.23h-4.7l6.75-7.28h5.57l3.74,7.28h-4.39Zm-2.61,8.05c-.42-.04-.81-.06-1.18-.06-1.02,0-1.92.17-2.69.51-.77.34-1.44.79-2.01,1.33-.57.55-1.05,1.17-1.44,1.87-.39.7-.69,1.41-.92,2.13-.23.72-.39,1.42-.49,2.1-.1.68-.14,1.28-.14,1.8,0,.55.06,1.06.17,1.53.11.47.29.87.52,1.21.24.34.53.61.88.8.35.19.75.29,1.21.29.85,0,1.6-.25,2.26-.74.66-.49,1.24-1.12,1.74-1.88.5-.76.91-1.62,1.25-2.58.33-.96.6-1.9.81-2.84l1.18-5.32c-.34-.08-.72-.13-1.14-.17Z"/>
          <path class="cls-43" d="m504.36,153.93c-.76,1.32-1.54,2.52-2.35,3.59-.81,1.08-1.69,1.99-2.64,2.75-.95.76-2,1.34-3.15,1.75-1.15.41-2.45.61-3.91.61-.5,0-1.11-.05-1.81-.15s-1.36-.25-1.97-.48l1.2-5.43c.31.22.7.39,1.16.51.46.12.92.18,1.38.18.87,0,1.69-.2,2.45-.61.76-.41,1.42-1.07,1.98-1.99l1.83-2.87-4.43-22.66h7.39l1.6,13.87c.04.5.07,1.05.09,1.63.01.58,0,1.05-.04,1.42h.09c.13-.37.3-.83.51-1.38.21-.55.46-1.1.76-1.67l6.97-13.87h7.39l-14.49,24.8Z"/>
        </g>
      </g>
      <g>
        <g>
          <path class="cls-25" d="m118.23,64.78c-.93,6.53-3.57,12.76-6.54,18.61-2.94,5.78-6.54,11.17-10.64,16.19-.58.73-1.29.94-1.97.79-.07-.12-.17-.21-.25-.33-.3-.38-.63-.73-.94-1.07-.3-.31-.6-.61-.91-.88-.1-.66.05-1.37.56-2.02,4.35-5.34,8.01-11.2,10.96-17.42,2.58-5.45,4.56-11.04,5.16-17.07.3-3.12.02-6.21.21-9.32.15-2.54.1-4.97-.41-7.47-2.1-10.21-8.49-19.58-15.72-26.89-1.54-1.54-.4-3.67,1.21-4.15.2-.07.4-.1.61-.1.58,0,1.16.21,1.69.74,4.49,4.54,8.46,9.73,11.58,15.32,2.88,5.12,5.12,10.69,5.87,16.54.38,2.97,0,5.92.17,8.91.18,3.19-.18,6.43-.63,9.6Z"/>
          <g>
            <path class="cls-45" d="m126.07,58.03c-.02-.25-.04-.5-.06-.76.02.25.04.5.06.76Z"/>
            <path class="cls-21" d="m126.13,58.85c-.02-.27-.04-.55-.06-.82.02.27.04.55.06.82Z"/>
            <path class="cls-8" d="m126.22,60.48c-.02-.55-.05-1.09-.09-1.63.03.54.06,1.09.09,1.63Z"/>
            <path class="cls-28" d="m117.25,55.86c0,17.07-5.92,31.51-19.37,43.11-.3-.31-.6-.61-.91-.88-5.07-4.56-11.35-4.64-12.29-4.64,2.78-1.64,24.04-14.74,26.09-37.38C112.97,31.89,92.45,5.95,60.46.1c3.31-.18,8.64-.23,14.99.89.02,0,.02.02.02.02,3.39.66,6.68,1.6,9.85,2.79,5.39,2.69,10.15,6.02,14.24,9.87,11.44,10.71,17.7,25.5,17.7,42.19Z"/>
            <path class="cls-39" d="m126.26,62v.93c0,.38,0,.76-.02,1.14,0,.17,0,.35-.02.53,0,.35-.02.71-.03,1.07v.15c-.02.28-.03.58-.07.88-.02.35-.03.68-.07,1.02,0,.07-.02.13-.02.2s-.02.15-.02.21c-.02.12-.02.25-.03.36-2.41,25.78-20.52,41.3-23.25,43.56.05-1.45.1-6.81-3.67-11.68-.07-.12-.17-.21-.25-.33-.3-.38-.63-.73-.94-1.07,11.44-10.69,18.59-26.04,18.59-43.11s-6.73-31.45-17.53-42.09c-4.02-3.97-8.61-7.32-13.63-9.96,23.2,8.71,39.91,30.67,40.9,56.68.02.25.02.5.03.76v.12c0,.21,0,.43.02.64Z"/>
          </g>
        </g>
        <g>
          <path class="cls-5" d="m96.96,111.35c-8.09,4.74-17.16,7.55-26.82,7.55-16.28,0-31.83-7.18-41.66-18.39,20.8,7.02,46.8-9.11,63.54,4.44,1.09.88,4.19,3.4,4.94,6.4Z"/>
          <path class="cls-52" d="m97.08,113.25c-.22,1.73-1.4,3.38-3.32,4.89-5.49,3.05-11.47,5.31-17.81,6.62,0,0-.02,0-.03,0-10.17,2.15-18.21,1.38-23.34.42C23.97,119.79-.55,92.07,0,65.97c.1-4.44.9-8,1.47-10.1,0,32.54,15.59,40,25.15,43.95.61.25,1.23.48,1.85.69,10.65,10.68,25.38,17.29,41.66,17.29,9.66,0,18.78-2.33,26.82-6.45.15.62.21,1.25.12,1.9Z"/>
        </g>
        <g>
          <path class="cls-32" d="m84.81,19.19c-17.39-9.6-38.96-4.78-53.24,8-15.78,14.12-24.23,38.96-13.31,58.17-.87-.72-5.09-5.73-8.36-13.92-1.86-6.53-2.48-9.15-2.48-14.02C7.42,27.77,28.32,7.49,57.35,7.49c7.57,0,11.55.62,21.15,5.2,3.68,2.94,5.76,5.61,6.32,6.5Z"/>
          <path class="cls-54" d="m78.49,12.69c-6.41-3.04-13.58-4.73-21.15-4.73C30.03,7.96,7.89,30.1,7.89,57.42c0,4.87.71,9.58,2.02,14.02-2.66-6.67-4.71-15.46-3.82-25.78,1.59-18.44,14.35-29.18,16.77-31.14.27-.26.93-.9,1.94-1.74.02,0,.03-.02.04-.03,2.77-2.12,5.73-4.01,8.83-5.65.02,0,.03-.02.05-.02,5.84-2.83,13.73-5.05,23.02-3.68,9.9,1.47,17.11,5.6,21.76,9.31Z"/>
        </g>
        <path class="cls-53" d="m77.76,44.41s-.03.01-.04.02v-.02s.04,0,.04,0Z"/>
        <path class="cls-53" d="m77.76,44.41s-.03.01-.04.02v-.02s.04,0,.04,0Z"/>
        <path class="cls-17" d="m77.76,44.41s-.03.01-.04.02v-.02s.04,0,.04,0Z"/>
        <g>
          <circle class="cls-3" cx="75.64" cy="34.02" r="7.12"/>
          <polygon class="cls-23" points="73.2 31.76 72.11 33.91 74.64 33.91 73.55 31.76 73.2 31.76"/>
          <path class="cls-33" d="m75.6,26.42c-4.19,0-7.58,3.39-7.58,7.58s3.39,7.58,7.58,7.58,7.58-3.39,7.58-7.58-3.39-7.58-7.58-7.58Zm.14,9.7l-.49-.96h-3.76l-.49.96h-1.98l3.01-5.68h2.69l2.97,5.68h-1.96Zm5.2,0h-1.82v-5.68h1.82v5.68Z"/>
        </g>
        <path class="cls-24" d="m77.76,44.41s-.03.01-.04.02v-.02s.04,0,.04,0Z"/>
        <g>
          <path class="cls-20" d="m75.43,74.7l-.03.06c0-5.38.02-10.77.03-16.15v6.89s.06,4.97,0,9.21Z"/>
          <path class="cls-2" d="m76.38,58.67c-.01,5.38,0,10.84,0,16.23l-.31.62c-.04,1.32-.22,1.77-.31,2.5-.31,2.39-1.1,4.38-2.18,5.62-.21.24-.68.41-.94.62-1.49,1.27-4.11,2.1-7.18,2.5-1.59.21-4.39.31-8.43.31-6,0-10.43-.29-13.11-.94-3.26-.78-5.27-3.12-5.93-6.24-.24-1.14-.12-2.49-.16-4.17h0c0-.37-.02-.74-.02-1.13h8.01c.2,1.71.55,2.81,1.05,3.28,1.13,1.1,4.29,1.66,9.5,1.66s8.83-.56,10.16-1.69c.93-.81,1.4-2.98,1.4-6.52v-29.71h0c.13,0,.27,0,.4,0,.04.1.08.19.13.29.91,1.85,2.52,3.29,4.47,3.98.78.28,1.61.44,2.48.46l.96,1.74c0,3.49,0,7.12,0,10.61Z"/>
          <path class="cls-9" d="m83.25,41.6v30.04c0,3.9-.11,6.69-.33,8.36-.44,3.36-1.43,5.91-2.95,7.65-2.01,2.33-5.55,3.83-10.6,4.49-2.23.29-6.2.44-11.89.44-8.47,0-14.59-.45-18.37-1.36-4.59-1.1-7.35-3.85-8.28-8.25-.42-1.96-.63-4.49-.63-7.58,0-.26,0-.53,0-.82h7.62c0,.39,0,.76.02,1.13h0c.04,1.68.19,3.09.43,4.23.66,3.12,2.62,5.06,5.87,5.85,2.68.64,7.02.96,13.02.96,4.04,0,6.85-.1,8.43-.31,3.06-.4,5.34-1.24,6.83-2.51.25-.22.48-.44.69-.68,1.08-1.23,1.78-3.04,2.09-5.43.09-.72.16-1.75.2-3.07h0s.03-.06.03-.06c.06-4.23,0-9.21,0-9.21v-6.89c0-3.49,0-6.98-.02-10.47v-1.82c.06,0,.12,0,.18,0,.61,0,1.22-.07,1.79-.21.58-.13,1.14-.33,1.66-.58,1.61-.78,2.91-2.08,3.7-3.68.04-.08.08-.17.12-.26h.38Z"/>
          <polygon class="cls-15" points="38.31 80.2 45.62 74.58 30.2 74.58 38.31 80.2"/>
        </g>
      </g>
    </g>
  </g>
</svg>