<?xml version="1.0" encoding="UTF-8"?>
<svg id="Layer_2" data-name="Layer 2" xmlns="http://www.w3.org/2000/svg" xmlns:xlink="http://www.w3.org/1999/xlink" viewBox="0 0 509.21 141.04">
  <defs>
    <style>
      .cls-1 {
        fill: url(#linear-gradient-2);
      }

      .cls-2 {
        fill: url(#radial-gradient-7);
      }

      .cls-3 {
        fill: #fff;
      }

      .cls-4 {
        fill: url(#linear-gradient-17);
      }

      .cls-5 {
        fill: url(#linear-gradient-15);
      }

      .cls-6 {
        fill: url(#linear-gradient-18);
      }

      .cls-7 {
        fill: url(#linear-gradient-28);
      }

      .cls-8 {
        fill: url(#linear-gradient-14);
      }

      .cls-9 {
        fill: url(#linear-gradient-36);
      }

      .cls-10 {
        fill: url(#linear-gradient-20);
      }

      .cls-11 {
        fill: url(#linear-gradient-6);
      }

      .cls-12 {
        fill: url(#radial-gradient-5);
      }

      .cls-13 {
        fill: url(#radial-gradient-4);
      }

      .cls-14 {
        fill: url(#linear-gradient-35);
      }

      .cls-15 {
        fill: url(#linear-gradient-32);
      }

      .cls-16 {
        fill: url(#linear-gradient-11);
      }

      .cls-17 {
        fill: url(#radial-gradient-6);
      }

      .cls-18 {
        fill: url(#linear-gradient-10);
      }

      .cls-19 {
        fill: url(#radial-gradient);
      }

      .cls-20 {
        fill: url(#linear-gradient-37);
      }

      .cls-21 {
        fill: url(#linear-gradient-16);
      }

      .cls-22 {
        fill: url(#linear-gradient-31);
      }

      .cls-23 {
        fill: url(#linear-gradient-21);
      }

      .cls-24 {
        fill: url(#linear-gradient-25);
      }

      .cls-25 {
        fill: url(#linear-gradient-5);
      }

      .cls-26 {
        fill: #eb2c25;
      }

      .cls-27 {
        fill: url(#radial-gradient-2);
      }

      .cls-28 {
        fill: url(#linear-gradient-34);
      }

      .cls-29 {
        fill: url(#radial-gradient-3);
      }

      .cls-30 {
        fill: url(#linear-gradient-7);
      }

      .cls-31 {
        fill: url(#linear-gradient-24);
      }

      .cls-32 {
        fill: url(#linear-gradient-9);
      }

      .cls-33 {
        fill: url(#linear-gradient-22);
      }

      .cls-34 {
        fill: url(#linear-gradient-3);
      }

      .cls-35 {
        fill: #1d7876;
      }

      .cls-36 {
        fill: url(#linear-gradient);
      }

      .cls-37 {
        fill: url(#linear-gradient-27);
      }

      .cls-38 {
        fill: #e9292a;
      }

      .cls-39 {
        fill: url(#linear-gradient-33);
      }

      .cls-40 {
        fill: url(#linear-gradient-38);
      }

      .cls-41 {
        fill: url(#linear-gradient-29);
      }

      .cls-42 {
        fill: url(#linear-gradient-30);
      }

      .cls-43 {
        fill: url(#linear-gradient-23);
      }

      .cls-44 {
        fill: url(#linear-gradient-19);
      }

      .cls-45 {
        fill: url(#linear-gradient-4);
      }

      .cls-46 {
        fill: url(#linear-gradient-8);
      }

      .cls-47 {
        fill: url(#linear-gradient-12);
      }

      .cls-48 {
        fill: url(#linear-gradient-13);
      }

      .cls-49 {
        fill: url(#linear-gradient-26);
      }
    </style>
    <linearGradient id="linear-gradient" x1="279.28" y1="54.97" x2="334.71" y2="54.97" gradientUnits="userSpaceOnUse">
      <stop offset="0" stop-color="#218180"/>
      <stop offset=".59" stop-color="#0f6665"/>
      <stop offset="1" stop-color="#015250"/>
    </linearGradient>
    <linearGradient id="linear-gradient-2" x1="209.97" y1="64.9" x2="261.74" y2="64.9" xlink:href="#linear-gradient"/>
    <linearGradient id="linear-gradient-3" x1="123.61" y1="54.43" x2="183.34" y2="54.43" xlink:href="#linear-gradient"/>
    <linearGradient id="linear-gradient-4" x1="213.36" y1="64.86" x2="258.08" y2="64.86" gradientUnits="userSpaceOnUse">
      <stop offset="0" stop-color="#218180"/>
      <stop offset=".09" stop-color="#1d7b7a"/>
      <stop offset=".67" stop-color="#085d5b"/>
      <stop offset="1" stop-color="#015250"/>
    </linearGradient>
    <linearGradient id="linear-gradient-5" x1="271.32" y1="89.62" x2="199.99" y2="39.58" xlink:href="#linear-gradient-4"/>
    <linearGradient id="linear-gradient-6" x1="137.97" y1="51.06" x2="180.88" y2="51.06" xlink:href="#linear-gradient-4"/>
    <linearGradient id="linear-gradient-7" x1="200.22" y1="54.74" x2="142.08" y2="54.74" xlink:href="#linear-gradient"/>
    <linearGradient id="linear-gradient-8" x1="148.39" y1="68.68" x2="121.35" y2="68.68" xlink:href="#linear-gradient-4"/>
    <linearGradient id="linear-gradient-9" x1="200.79" y1="23.38" x2="165.59" y2="23.38" xlink:href="#linear-gradient-4"/>
    <linearGradient id="linear-gradient-10" x1="296.06" y1="85.65" x2="272.33" y2="85.65" xlink:href="#linear-gradient-4"/>
    <linearGradient id="linear-gradient-11" x1="284.88" y1="64.99" x2="332.33" y2="64.99" xlink:href="#linear-gradient-4"/>
    <linearGradient id="linear-gradient-12" x1="353.92" y1="89.63" x2="279.43" y2="49.65" xlink:href="#linear-gradient-4"/>
    <linearGradient id="linear-gradient-13" x1="251.86" y1="27.18" x2="305.57" y2="79.6" xlink:href="#linear-gradient-4"/>
    <linearGradient id="linear-gradient-14" x1="300.59" y1="25.4" x2="273.4" y2="25.4" xlink:href="#linear-gradient-4"/>
    <linearGradient id="linear-gradient-15" x1="445.08" y1="64.57" x2="508.32" y2="64.57" gradientUnits="userSpaceOnUse">
      <stop offset="0" stop-color="#b52028"/>
      <stop offset=".32" stop-color="#c72228"/>
      <stop offset="1" stop-color="#eb2628"/>
    </linearGradient>
    <linearGradient id="linear-gradient-16" x1="431.8" y1="55.56" x2="359.19" y2="55.56" xlink:href="#linear-gradient-15"/>
    <linearGradient id="linear-gradient-17" x1="437.85" y1="52.19" x2="356.83" y2="21.52" gradientUnits="userSpaceOnUse">
      <stop offset="0" stop-color="#b5202a"/>
      <stop offset=".3" stop-color="#c5222a"/>
      <stop offset="1" stop-color="#e9292a"/>
    </linearGradient>
    <linearGradient id="linear-gradient-18" x1="424.4" y1="82.69" x2="361.49" y2="50.8" xlink:href="#linear-gradient-17"/>
    <linearGradient id="linear-gradient-19" x1="413.33" y1="76.78" x2="359.23" y2="46.6" xlink:href="#linear-gradient-17"/>
    <linearGradient id="linear-gradient-20" x1="316.54" y1="28.39" x2="437.34" y2="68.94" xlink:href="#linear-gradient-17"/>
    <linearGradient id="linear-gradient-21" x1="356.1" y1="42.91" x2="384.57" y2="42.34" xlink:href="#linear-gradient-17"/>
    <linearGradient id="linear-gradient-22" x1="350.7" y1="67.49" x2="377.16" y2="67.78" xlink:href="#linear-gradient-17"/>
    <linearGradient id="linear-gradient-23" x1="380.95" y1="55" x2="411.43" y2="55" xlink:href="#linear-gradient-17"/>
    <linearGradient id="linear-gradient-24" x1="451.48" y1="73.73" x2="451.49" y2="73.73" xlink:href="#linear-gradient-17"/>
    <linearGradient id="linear-gradient-25" x1="442.6" y1="64.48" x2="508.19" y2="64.48" xlink:href="#linear-gradient-17"/>
    <linearGradient id="linear-gradient-26" x1="447.46" y1="66.78" x2="533.19" y2="66.78" xlink:href="#linear-gradient-17"/>
    <linearGradient id="linear-gradient-27" x1="521.25" y1="62.82" x2="433.95" y2="62.82" xlink:href="#linear-gradient-17"/>
    <linearGradient id="linear-gradient-28" x1="489.21" y1="52.16" x2="508.02" y2="52.16" xlink:href="#linear-gradient-17"/>
    <linearGradient id="linear-gradient-29" x1="467.21" y1="76.38" x2="439.17" y2="76.38" xlink:href="#linear-gradient-17"/>
    <linearGradient id="linear-gradient-30" x1="86.02" y1="49.73" x2="102.26" y2="49.73" xlink:href="#linear-gradient-15"/>
    <radialGradient id="radial-gradient" cx="79.81" cy="75.47" fx="79.81" fy="75.47" r="48.09" gradientUnits="userSpaceOnUse">
      <stop offset="0" stop-color="#eb2c25"/>
      <stop offset=".99" stop-color="#b72025"/>
    </radialGradient>
    <radialGradient id="radial-gradient-2" cx="144.38" cy="-7.93" fx="144.38" fy="-7.93" r="115.63" xlink:href="#radial-gradient"/>
    <radialGradient id="radial-gradient-3" cx="63.68" cy="84.91" fx="63.68" fy="84.91" r="20.76" gradientUnits="userSpaceOnUse">
      <stop offset="0" stop-color="#23847f"/>
      <stop offset="1" stop-color="#075c5a"/>
    </radialGradient>
    <radialGradient id="radial-gradient-4" cx="83.98" cy="94.92" fx="83.98" fy="94.92" r="66.27" xlink:href="#radial-gradient-3"/>
    <radialGradient id="radial-gradient-5" cx="72.51" cy="13.43" fx="72.51" fy="13.43" r="66.27" xlink:href="#radial-gradient-3"/>
    <radialGradient id="radial-gradient-6" cx="1.51" cy="53.5" fx="1.51" fy="53.5" r="76.19" xlink:href="#radial-gradient-3"/>
    <linearGradient id="linear-gradient-31" x1="67.79" y1="38.74" x2="67.76" y2="38.72" xlink:href="#linear-gradient-4"/>
    <linearGradient id="linear-gradient-32" x1="67.79" y1="38.74" x2="67.76" y2="38.72" xlink:href="#linear-gradient-4"/>
    <linearGradient id="linear-gradient-33" x1="67.8" y1="38.73" x2="67.75" y2="38.73" xlink:href="#linear-gradient-4"/>
    <radialGradient id="radial-gradient-7" cx="65.92" cy="29.66" fx="65.92" fy="29.66" r="5.13" xlink:href="#radial-gradient"/>
    <linearGradient id="linear-gradient-34" x1="67.75" y1="38.73" x2="67.79" y2="38.73" xlink:href="#linear-gradient-4"/>
    <linearGradient id="linear-gradient-35" x1="71.08" y1="63.59" x2="63.17" y2="55.49" xlink:href="#linear-gradient-4"/>
    <linearGradient id="linear-gradient-36" x1="48.64" y1="56.09" x2="64.61" y2="56.09" xlink:href="#linear-gradient-4"/>
    <linearGradient id="linear-gradient-37" x1="76.13" y1="65.09" x2="57.18" y2="59.13" xlink:href="#linear-gradient"/>
    <linearGradient id="linear-gradient-38" x1="42.48" y1="67.54" x2="23.68" y2="67.33" xlink:href="#linear-gradient-4"/>
  </defs>
  <g id="Layer_1-2" data-name="Layer 1">
    <g>
      <g>
        <path class="cls-36" d="m335.24,59.64c-.69-4.52-1.75-8.71-6.42-10.54-2.21-.87-4.68-1.19-6.99-1.69-2.64-.57-5.28-1.21-7.96-1.53-5.84-.7-11.57.86-17.02,2.82-2.47.89-4.96,1.82-7.09,3.37-1.45,1.06-2.7,2.31-3.88,3.64.26-8.38.67-16.75,1.21-25.11,1.69-1.17,3.3-2.47,4.79-3.89.39-.38.63-.98.63-1.52s-.23-1.16-.63-1.52c-.41-.38-.95-.66-1.52-.63-.58.03-1.1.22-1.52.63-.86.82-1.76,1.59-2.69,2.32-.24.18-.48.35-.72.53-.16-.11-.34-.21-.53-.28-.3-.14-.58-.32-.85-.5-.26-.23-.51-.46-.73-.74-.28-.39-.56-.77-.9-1.11-.26-.26-.57-.51-.89-.69-.56-.31-1-.39-1.63-.46-.51-.05-1.17.28-1.52.63-.37.37-.65.98-.63,1.52.03.56.21,1.13.63,1.52.15.11.29.22.44.34.18.11.37.18.57.23.14.14.28.28.41.43.39.52.77,1.03,1.27,1.45.56.46,1.15.81,1.78,1.11-.6,9.11-1.05,18.23-1.31,27.35-.13,4.52-.2,8.97.44,13.46.68,4.78,1.42,9.49,1.43,14.34,0,2.77,4.31,2.77,4.3,0-.01-3.67-.4-7.29-.91-10.9,2.54,3.23,6.01,5.51,9.84,6.94,4.71,1.76,9.86,2.12,14.84,2.15,4.87.03,10.28.19,15-1.26,4.23-1.3,7.39-4.29,8.9-8.45,1.66-4.57.61-9.31-.1-13.95Zm-3.29,9.39c-.23,3.59-2.14,7.01-5.52,8.47-3.62,1.56-8.02,1.41-11.88,1.48-4.16.08-8.4.07-12.49-.76-4.11-.84-8.03-2.49-10.98-5.55-3.17-3.29-3.73-7.12-3.6-11.54,0-.24-.03-.44-.08-.64,2.44-2.91,4.9-5.43,8.53-6.88,4-1.59,8.27-3.07,12.57-3.51,4.4-.44,8.6.68,12.86,1.6,3.6.78,7.95.95,9.05,5.15.5,1.93.68,3.98.99,5.95.32,2.06.68,4.14.55,6.24Z"/>
        <path class="cls-1" d="m262.73,67.24c-.32-5.26.9-11.14-1.43-16.07-.98-2.06-2.62-3.83-4.74-4.72-2.54-1.05-5.64-.92-8.34-1.12-5.95-.44-11.92-.77-17.89-.58-3.34.11-6.67.4-9.98.89-2.87.42-5.73,1.13-7.79,3.31-3.44,3.65-4.27,9.55-4,14.58-.27.62-.27,1.36.17,2.03,0,.04,0,.07,0,.11.08.67.4,1.18.84,1.52.4,1.78-.39,4.09-.37,5.71.02,2.43.97,4.64,2.61,6.42,3.47,3.76,9.27,4.77,14.11,5.32,5.85.67,11.82.43,17.7.24,5.17-.17,12.12.32,16.33-3.26,4.26-3.62,3.06-9.5,2.77-14.39Zm-5.37,10.95c-1.6,1.57-4.45,1.85-6.57,2.04-2.49.22-5,.28-7.5.36-4.99.16-10.02.31-15-.04-4.36-.3-10.83-.88-13.75-4.65-1.6-2.06-.84-4.44-.66-6.81.13-1.81-.13-3.51-.99-5.01-.28-3.84,0-8.44,2.23-11.5,1.3-1.79,3.29-2.28,5.37-2.63,2.67-.45,5.39-.68,8.09-.82,5.02-.25,10.06-.1,15.08.2,2.46.15,4.91.33,7.36.52,2.2.17,4.36.19,5.79,2.12,2.67,3.61,1.4,9.15,1.53,13.32.06,2.15.31,4.27.46,6.41.15,2.16.23,4.84-1.45,6.49Z"/>
        <path class="cls-34" d="m184.78,27.09c.26-2.75-4.04-2.74-4.3,0-.69,7.26-1.07,14.55-1.09,21.84-.02,7.24.51,14.49.05,21.73-.05.8-.11,1.59-.19,2.39-.06.63,0,2.01-.32,2.56-.47.78-2.79,1.41-3.72,1.74-2.97,1.06-6.08,1.67-9.22,1.95-6.35.57-13.06.27-19.37-.61-3.76-.53-7.15-2.17-10.43-4.01-.62-.35-1.28-.7-1.8-1.2-.1-.09-.23-.26-.35-.37,1.67-.67,3.31-1.86,4.86-2.72,2.08-1.15.67-4.8-1.66-3.93-3.01,1.12-7.13,2.65-10.02.42-1.15-.88-2.12-2-3.71-1.19-1.22.62-1.7,2.24-.94,3.39.44.66,1.05.94,1.68.97.24.17.49.33.57.39.43.31.85.56,1.32.79,1.04.5,2.13.79,3.26.94-.05.37-.03.78.07,1.23.76,3.31,4.23,4.87,6.96,6.27,3.6,1.84,7.18,3.02,11.21,3.45,3.83.4,7.71.65,11.56.71,7.17.1,15.71-.49,21.94-4.46,1.41-.9,1.86-2.12,2.09-3.71.28-2,.46-4.01.56-6.02.22-4.34.09-8.69-.01-13.03-.23-9.86.06-19.69,1-29.51Z"/>
        <g>
          <g>
            <path class="cls-45" d="m261.64,56.33c-.72-3.42-2.44-6.04-5.14-7.58-2.01-1.14-5.16-2.31-9.2-2.71-2.25-.23-5.38-.54-10.29-.54-6.39,0-11.5.17-13.81.54-5.5.89-8.9,3.27-10.56,6.5-1.14,2.2-1.9,6.22-1.9,11.37,0,4.32.02,7.35.27,8.93.6,3.84,2.1,6.44,4.6,8.12,2.06,1.39,5.51,2.56,9.75,2.98,1.76.18,5.48.27,11.1.27,7.54,0,12.92-.32,16.24-1.08,3.96-.92,6.86-3.13,8.12-6.5.87-2.3,1.35-6.45,1.35-12.18,0-3.81-.19-6.48-.54-8.12Zm-13.43,18.82c-1.76.98-5.66,1.46-11.71,1.46s-9.9-.52-12.14-1.56c-1.69-.78-2.79-2.14-3.32-4.1-.29-1.11-.44-2.96-.44-5.56,0-5.75,1.37-9.25,4.1-10.48,2.02-.91,5.96-1.37,11.85-1.37,5.43,0,9.28.49,11.56,1.47,2.7,1.17,4.05,4.49,4.05,9.95s-1.32,8.73-3.95,10.19Z"/>
            <path class="cls-25" d="m269.14,53.44c-.94-4.49-3.19-7.73-6.73-9.75-2.64-1.5-6.6-2.5-11.9-3.03-2.96-.29-7.66-.44-14.1-.44-8.39,0-14.1.24-17.12.73-7.22,1.17-11.92,3.87-14.1,8.1-1.5,2.89-2.24,7.72-2.24,14.49,0,5.66.16,9.53.49,11.61.78,5.04,2.81,8.67,6.1,10.88,2.7,1.82,6.83,3.01,12.39,3.56,2.3.23,7.15.34,14.54.34,9.88,0,17-.51,21.36-1.51,5.2-1.21,8.63-4.02,10.29-8.44,1.14-3.03,1.71-8.29,1.71-15.8,0-5.01-.23-8.58-.68-10.73Zm-8.57,22.99c-1.26,3.37-3.88,5.51-7.84,6.43-3.32.77-8.75,1.15-16.28,1.15-5.62,0-9.32-.09-11.07-.26-4.24-.42-7.39-1.32-9.44-2.71-2.5-1.69-4.05-4.45-4.65-8.29-.25-1.58-.37-4.53-.37-8.85,0-5.15.57-8.83,1.71-11.04,1.66-3.22,5.24-5.28,10.74-6.17,2.3-.37,6.65-.56,13.05-.56,4.91,0,8.48.11,10.74.34,4.04.4,7.07,1.16,9.07,2.3,2.7,1.54,4.41,4.01,5.13,7.43.35,1.64.52,4.37.52,8.18,0,5.73-.44,9.74-1.3,12.04Z"/>
          </g>
          <g>
            <path class="cls-11" d="m182.98,52.28s.23,18.44-.41,20.84c-.18.68-1.26,3.65-1.86,4.33-1.97,2.29-5.98,4.31-10.94,4.95-2.19.29-6.18.21-11.76.21-8.3,0-14.45-.14-18.16-1.03-4.5-1.08-7.34-4.57-8.25-8.87-.34-1.58-.38-7.84-.38-7.84h11.04c.27,2.49.76,4.08,1.47,4.76,1.56,1.53,5.93,2.29,13.12,2.29s12.21-.78,14.04-2.34c1.29-1.12,1.93-4.12,1.93-9V19.51c3.59-.01,10.46.03,10.46.04l-.31,32.72Z"/>
            <path class="cls-30" d="m194,19.51v41.51c0,5.39-.16,9.24-.46,11.55-.61,4.65-1.97,8.17-4.07,10.58-2.78,3.22-7.67,5.29-14.66,6.21-3.08.41-8.56.61-16.43.61-11.7,0-20.16-.63-25.38-1.88-6.34-1.52-10.16-5.32-11.45-11.39-.58-2.71-.86-6.21-.86-10.48,0-.43,0-.88,0-1.35h10.53v.2c0,.55.01,1.07.02,1.58h0c.06,2.32.26,4.27.59,5.85.91,4.31,3.62,7,8.12,8.08,3.71.89,9.7,1.33,18,1.33,5.58,0,9.47-.14,11.65-.43,4.95-.65,8.42-2.12,10.39-4.4.6-.68,1.11-1.5,1.54-2.44.09-.35.22-.84.41-1.51.64-2.4.44-20.59.44-20.59V19.51h11.61Z"/>
            <polygon class="cls-46" points="131.81 72.5 142.21 64.86 120.88 64.86 131.81 72.5"/>
            <polygon class="cls-32" points="182.47 27.19 193.82 19.56 172.87 19.56 182.47 27.19"/>
          </g>
          <g>
            <polygon class="cls-18" points="284.98 82.55 276.51 88.76 293.14 88.76 284.98 82.55"/>
            <path class="cls-16" d="m334.2,57.14c-.78-2.79-2.65-4.84-5.14-6.23-3.57-1.98-10.91-3.25-21.12-3.25-4.68,0-8.14,1.11-10.29,1.9-3.32,1.21-11.67,7.94-13.54,10.16l-.03,10.66c1.2,1.49,8.07,8.39,9.36,8.97,2.88,1.27,7.69,2.97,15.3,2.97,6.27,0,11.11-.26,14.08-.81,5.31-.99,9.03-3.5,10.56-6.5,1.08-2.11,1.35-5.67,1.35-10.29,0-3.47-.12-6.06-.54-7.58Zm-11.59,17.57c-2.05,1.3-6.18,1.95-12.39,1.95-4.16,0-7.12-.18-8.88-.53-3.71-.75-5.94-2.36-6.69-4.83-.33-1.08-.49-3.06-.49-5.95,0-5.5,1.17-8.86,3.51-10.1,2.08-1.1,6.16-1.65,12.24-1.65,5.3,0,9.14.47,11.51,1.41,1.82.72,3.01,2.07,3.56,4.05.33,1.17.49,3.05.49,5.66,0,5.46-.96,8.8-2.88,10Z"/>
            <path class="cls-47" d="m343.14,65c0,6.83-.58,11.8-1.76,14.93-1.65,4.42-5.36,7.36-11.11,8.83-3.21.82-8.22,1.22-15.01,1.22-7.25,0-12.52-.73-15.8-2.18-.45-.2-.87-.42-1.25-.64-1.4-.84-2.75-2.37-4.05-4.59h-1.03v6.2h-8.14l-.89-19.97c1.2,1.49,9.6,10.32,10.89,10.89,2.88,1.27,4.15,1.9,13.53,2.21,6.27.2,10.89-.28,13.86-.83,5.31-.99,8.73-2.98,10.25-5.97,1.08-2.11,1.62-5.47,1.62-10.09,0-3.47-.21-5.97-.63-7.49-.78-2.79-2.42-4.88-4.91-6.27-3.57-1.98-10.46-2.97-20.67-2.97-4.68,0-8.01.8-10.16,1.58-3.32,1.21-11.93,8.59-13.79,10.81l1.07-38.49h8.99v25.65h.78c2.01-3.28,4.89-5.46,8.63-6.53.29-.08.59-.16.91-.23,2.37-.53,5.79-.79,10.25-.79,11.05,0,18.52,1.46,22.39,4.39,2.7,2.05,4.47,5.14,5.32,9.27.45,2.24.68,5.93.68,11.07Z"/>
            <path class="cls-48" d="m276.51,22.17v66.58h8.49l.05-18.64.03-10.66.1-37.28h-8.67Z"/>
            <polygon class="cls-8" points="285.16 28.61 294.13 22.18 276.51 22.18 285.16 28.61"/>
          </g>
        </g>
        <g>
          <path class="cls-35" d="m188.37,109.15h-7.8l-4.79,22.6h-6.27l4.77-22.6h-7.9l1.1-5.08h21.99l-1.1,5.08Z"/>
          <path class="cls-35" d="m196.79,131.58c-.23.07-.5.13-.8.19-.3.07-.62.13-.97.18-.34.06-.69.1-1.06.14-.37.03-.73.05-1.09.05-.86,0-1.6-.11-2.21-.34s-1.12-.54-1.52-.95c-.4-.4-.69-.89-.88-1.45-.19-.56-.28-1.17-.28-1.84,0-.28.02-.6.05-.94.03-.35.07-.71.13-1.09.05-.38.11-.76.18-1.16s.15-.77.22-1.13c.05-.22.14-.62.26-1.21.12-.58.26-1.26.42-2.02.16-.76.33-1.56.51-2.4.18-.84.35-1.64.51-2.4s.3-1.43.42-2.02c.12-.58.21-.99.26-1.21h6.18l-2.36,11.12c-.1.45-.21.96-.33,1.51s-.17,1.05-.17,1.46c0,.49.15.83.46,1.02.31.19.66.29,1.06.29.33,0,.67-.04,1.01-.11.34-.07.65-.16.94-.28-.17.77-.33,1.54-.48,2.29-.15.75-.32,1.51-.48,2.29Zm-1.83-22.72l-5.02-6.27h5.1l4.03,6.27h-4.11Z"/>
          <path class="cls-35" d="m233.6,116.69c0,.19-.02.45-.06.77s-.09.66-.15,1-.12.69-.18,1.01-.12.61-.17.84l-2.41,11.43h-6.12l2.41-11.27c.08-.41.15-.84.23-1.27.08-.44.12-.77.12-1,0-.64-.15-1.14-.46-1.5-.31-.35-.78-.53-1.43-.53-.49,0-1.01.17-1.56.5-.55.33-1.08.77-1.57,1.31s-.93,1.16-1.31,1.85c-.38.69-.65,1.41-.8,2.14l-2.03,9.77h-6.16l2.41-11.27c.08-.41.15-.84.23-1.27s.12-.77.12-1c0-.64-.16-1.14-.47-1.5-.32-.35-.79-.53-1.42-.53-.5,0-1.03.17-1.58.5-.55.33-1.07.78-1.56,1.32-.49.55-.92,1.17-1.29,1.86-.37.69-.64,1.4-.79,2.12l-2.09,9.77h-6.18l2.93-13.55c.12-.59.23-1.19.35-1.79.12-.6.22-1.17.31-1.72.09-.55.17-1.06.24-1.53.07-.47.13-.86.16-1.19h6.02c-.04.36-.08.74-.13,1.13-.05.39-.09.77-.13,1.13-.05.36-.09.68-.13.96-.04.28-.07.47-.1.59h.08c.48-.62.99-1.19,1.55-1.71s1.15-.97,1.77-1.35,1.26-.68,1.91-.9c.66-.22,1.31-.33,1.97-.33,1.54,0,2.71.4,3.49,1.2s1.24,1.9,1.37,3.32c.49-.67,1.02-1.28,1.6-1.83.58-.55,1.2-1.03,1.85-1.43.66-.4,1.34-.71,2.05-.93.71-.22,1.43-.33,2.16-.33,1.63,0,2.87.45,3.7,1.34.83.89,1.24,2.18,1.24,3.85Z"/>
          <path class="cls-35" d="m257.52,131.75h-6.79l-2.61-19.77h6.08l.79,10.94c.03.25.05.54.07.89.02.35.04.71.05,1.08.01.37.02.74.03,1.11,0,.37,0,.68-.03.96h.08c.1-.27.22-.57.37-.9s.29-.67.44-1.02.31-.71.47-1.06c.16-.35.31-.69.45-1.01l5.31-10.98h6.72l-11.43,19.77Z"/>
          <path class="cls-35" d="m277.3,131.58c-.23.07-.5.13-.8.19-.3.07-.62.13-.97.18-.34.06-.69.1-1.06.14-.37.03-.73.05-1.09.05-.86,0-1.6-.11-2.21-.34s-1.12-.54-1.52-.95c-.4-.4-.69-.89-.88-1.45-.19-.56-.28-1.17-.28-1.84,0-.28.02-.6.05-.94.03-.35.07-.71.13-1.09.05-.38.11-.76.18-1.16.07-.39.15-.77.22-1.13.05-.22.14-.62.26-1.21.12-.58.26-1.26.42-2.02.16-.76.33-1.56.51-2.4.18-.84.35-1.64.51-2.4.16-.76.3-1.43.42-2.02.12-.58.21-.99.26-1.21h6.18l-2.36,11.12c-.1.45-.21.96-.33,1.51s-.17,1.05-.17,1.46c0,.49.15.83.46,1.02.31.19.66.29,1.06.29.33,0,.67-.04,1.01-.11.34-.07.65-.16.94-.28-.17.77-.33,1.54-.48,2.29-.15.75-.32,1.51-.48,2.29Zm2.01-25.96c0,.5-.1.95-.29,1.35-.19.4-.45.74-.78,1.03-.33.29-.71.51-1.16.67-.44.15-.92.23-1.44.23s-.94-.07-1.36-.22c-.42-.15-.78-.35-1.08-.62-.3-.27-.54-.58-.71-.94-.17-.36-.26-.75-.26-1.18,0-.5.09-.95.28-1.35.19-.4.44-.74.77-1.03.33-.29.72-.51,1.17-.66.45-.16.94-.23,1.47-.23.49,0,.94.07,1.35.22.41.15.77.35,1.07.62.3.26.54.57.71.94.17.36.26.75.26,1.18Z"/>
          <path class="cls-35" d="m299.81,117.08c0,1.02-.22,1.95-.65,2.8s-1.15,1.58-2.16,2.2c-1.01.62-2.35,1.1-4.02,1.46-1.67.36-3.76.55-6.25.59-.03.08-.04.15-.04.2v.18c0,.4.06.8.19,1.2.13.4.35.76.67,1.08.31.32.73.58,1.24.78s1.16.3,1.93.3c.46,0,.97-.04,1.51-.13.55-.08,1.1-.2,1.67-.37.57-.16,1.13-.35,1.69-.58.56-.23,1.08-.47,1.55-.74l-.95,4.56c-.4.21-.86.4-1.37.6-.51.19-1.07.37-1.67.52-.6.15-1.24.28-1.91.37-.68.09-1.37.13-2.08.13-1.49,0-2.77-.22-3.84-.66-1.07-.44-1.95-1.02-2.64-1.77-.69-.74-1.19-1.61-1.51-2.6-.32-.99-.48-2.05-.48-3.16,0-1.69.28-3.29.84-4.81.56-1.52,1.36-2.85,2.39-4,1.04-1.14,2.28-2.06,3.74-2.73s3.09-1.01,4.89-1.01c1.3,0,2.41.16,3.32.46.91.31,1.66.72,2.24,1.24.58.52,1,1.12,1.27,1.79.27.67.41,1.36.41,2.09Zm-11.43,22.22c-.86,0-1.57-.26-2.13-.77s-.84-1.14-.84-1.87c0-.77.28-1.4.85-1.88.57-.48,1.27-.72,2.12-.72s1.57.24,2.11.73c.55.49.82,1.11.82,1.87s-.27,1.39-.82,1.89c-.55.5-1.25.75-2.11.75Zm7.89-30.44l-2.24-3.67-3.8,3.67h-4.07l5.85-6.31h4.83l3.24,6.31h-3.8Zm-2.28,8.3c0-.48-.18-.87-.53-1.19-.35-.32-.85-.47-1.5-.47-.57,0-1.11.12-1.63.37-.52.24-1,.58-1.43,1.01s-.8.95-1.11,1.54c-.31.6-.54,1.25-.69,1.94,2.32.03,4.04-.24,5.18-.79,1.14-.55,1.71-1.36,1.71-2.41Z"/>
          <path class="cls-35" d="m317.47,117.41c-.44-.33-1-.62-1.7-.87-.69-.24-1.45-.37-2.26-.37-.94,0-1.79.22-2.55.66-.76.44-1.4,1-1.93,1.7-.53.69-.93,1.47-1.22,2.34-.28.86-.43,1.71-.43,2.55,0,1.33.31,2.35.93,3.07.62.72,1.54,1.08,2.78,1.08.39,0,.79-.04,1.21-.12.42-.08.83-.18,1.24-.32.41-.13.81-.29,1.19-.45.38-.17.72-.35,1.03-.54l-.95,4.67c-.88.45-1.81.8-2.8,1.05-.99.25-1.98.38-2.97.38-1.29,0-2.42-.2-3.39-.6-.97-.4-1.79-.96-2.44-1.68-.66-.72-1.15-1.58-1.48-2.58s-.49-2.09-.49-3.29c0-1.11.13-2.18.38-3.23.25-1.05.61-2.04,1.09-2.96.48-.93,1.06-1.78,1.77-2.57.7-.78,1.51-1.46,2.41-2.03.91-.57,1.91-1.01,3.01-1.32,1.1-.32,2.29-.47,3.56-.47.59,0,1.15.04,1.68.11.53.07,1.01.16,1.45.27s.82.23,1.16.37c.33.13.6.26.81.37l-1.1,4.79Z"/>
        </g>
      </g>
      <g>
        <path class="cls-5" d="m506.37,50.28c-4.96-2.44-9.97-5.45-15.27-7.09-5.13-1.59-10.73-.75-15.99-.46-4.93.27-10.55.01-15.03,2.38-4.28,2.25-6.03,7.98-5.43,12.54.64,4.86,4.18,7.65,8.89,8.1,2.53.25,5.02.33,7.54.74,2.57.42,5.12.7,7.72.81,2.56.11,5.15.11,7.7.44,2.05.27,5.59.6,6.57,2.75.83,1.82,1.39,5.13-.1,6.66-1.56,1.6-3.87,2.91-5.87,3.88-2.69,1.32-5.47,1.55-8.42,1.56-3.03,0-6.06-.01-9.09-.02-3.07,0-5.9-.12-8.82-1.15-1.42-.5-2.81-1.09-4.21-1.64-.1-.04-.2-.08-.3-.11.55-.14,1.1-.31,1.64-.51,2.54-.96,1.58-4.89-1.14-4.15-.98.27-2.18.47-3.36.77-2.35.23-4.7-.22-6.87-1.43-2.42-1.34-4.6,2.37-2.17,3.71,1.49.83,3.08,1.41,4.71,1.74.04.3.11.61.25.91.62,1.28,2.14,1.63,3.36,2.12,2.6,1.04,5.18,2.19,7.84,3.04,2.62.83,5.31.99,8.04,1,3.16.01,6.32.02,9.48.02,2.67,0,5.39-.04,7.96-.82,2.46-.75,4.73-2.02,6.84-3.47,2.07-1.42,4.31-2.92,5.03-5.47.64-2.3.16-5.29-.58-7.52-.84-2.51-2.54-4-4.99-4.9-5.32-1.97-11.18-1.39-16.73-1.89-2.88-.26-5.7-.96-8.59-1.16-2.26-.16-5.23.21-6.9-1.69-1.86-2.13-1.37-5.34-.54-7.78.96-2.81,3.17-3.8,5.94-4.36,3.24-.65,6.66-.61,9.95-.79,3.3-.18,6.63-.52,9.93-.42,3.15.1,5.95,1.15,8.74,2.47-.75.55-1.42,1.23-1.98,2.02-1.61,2.25,2.11,4.4,3.71,2.17.96-1.34,2.8-1.73,4.27-1.07,1.82.82,3.06,1.95,5.15,2.1,2.1.15,2.97-3.08,1.09-4.01Z"/>
        <path class="cls-21" d="m429.95,43.94c2.08-5.51.68-12.5-5.81-13.94-3.34-.74-6.94-.73-10.34-.97-3.62-.25-7.25-.47-10.88-.65-3.74-.19-7.49-.34-11.24-.45-3.37-.1-6.76-.22-10.11.28-5.51.83-10.92,4.08-12.59,9.4-.15,0-.31.03-.46.08-2.6.77-4.96,2.08-7.02,3.83-.26.22-.47.63-.55.95-.13.47-.08.96.11,1.4.15.35.36.63.66.86.34.27.85.51,1.3.46,1.01-.11,1.93-.34,2.82-.85.79-.46,1.4-1.08,1.95-1.78.13-.06.26-.14.39-.2.28-.11.58-.21.87-.31.53.48,1.32.62,2.04.45,1.6.91,3.29,1.65,5.1,2.12,1.09.28,2.38-.36,2.65-1.5.26-1.12-.34-2.35-1.5-2.65-.76-.2-1.5-.45-2.23-.74-.7-.31-1.37-.66-2.02-1.05,1.59-5.24,8.78-6.51,13.59-6.55,7.39-.06,14.83.43,22.21.88,3.74.23,7.48.49,11.22.8,2.98.24,5.93.65,6.47,4.13.5,3.22-1.41,6.45-2.85,9.19-1.38,2.63-2.99,5.24-6.16,5.67-.76.1-1.23.66-1.42,1.32-.67.02-1.34.03-2.02.05-2.13.05-4.3-.02-6.41.29-.37.06-.66.15-.92.26-.37-.51-1.06-.87-1.56-1.27-1.25-1.01-2.01-2.85-2.81-4.2-.62-1.04-2.24-.1-1.62.95.67,1.12,1.28,2.3,2.04,3.36.31.44.65.86,1.06,1.22.17.15.53.46.75.54.27.1.69-.12.33.06-2.56,1.29-4.97,3.18-7.23,4.93-.93.71-.13,2.26.95,1.62,1.7-1.01,3.58-1.66,5.29-2.63.71-.4,1.4-.87,2.01-1.4.28-.24.54-.5.78-.78.51-.58.77-.77,1.59-.86,2.04-.23,4.12-.17,6.17-.22.59-.01,1.18-.03,1.77-.04.17.3.4.57.71.74,1.81.94,4.08,2.01,5.09,3.89,1.26,2.34-.49,5.77-1.24,8.06-.74,2.22-1.36,5.88-3.37,7.3-2.15,1.52-5.43,2-7.97,2.38-5.81.88-11.82.55-17.67.4-6.05-.16-12.17-.28-18.2-.87-2.85-.28-5.46-1.17-7.42-3.32-.48-.52-.9-1.1-1.23-1.73-.29-.55-.31-.68.02-.86,2.06-.27,4.12-1.07,6.01-2.13,2.12-1.19.7-4.6-1.66-3.93-1.6.46-3.96.97-5.86,1.94-1.04-.02-2.04-.32-2.92-1.09-2.07-1.82-5.12,1.21-3.04,3.04.91.8,1.88,1.35,2.89,1.72-.38,2.81,2.1,5.71,4.11,7.35,2.65,2.15,5.75,2.99,9.09,3.3,3.97.38,7.97.5,11.95.66,7.67.31,15.57.84,23.21-.09,3.49-.42,7.27-1.07,10.39-2.79,3.21-1.77,4.16-5.37,5.29-8.61,1.2-3.48,3.24-7.82,1.96-11.53-.68-1.94-2.04-3.41-3.64-4.61,3.53-2.59,5.67-7.49,7.11-11.29Z"/>
        <g>
          <g>
            <path class="cls-4" d="m428.68,41.44c-.1.79-.35,1.83-.54,2.71-.17.79-.34,1.21-.54,1.9-.28.93-.47,1.69-.81,2.44-.09.18-.18.37-.27.54-.14.28-.12.56-.27.81-.31.5-1.09,1.18-1.35,1.62-1.62,2.71-6.86,3.76-6.77,3.79l-12.18.54-5.79-7.96h5.62c2.59,0,4.6-.06,6.05-.18.84-.07,1.48-.15,1.94-.26,3.13-.68,4.99-2.44,5.62-5.27.84-3.96-2.61-5.88-10.35-5.75l-6.28.13-3.62.07c-.19,0-.31,0-.35.01h-.25s-1.78.13-1.78.13c-8.43.15-13.27.71-14.5,1.66-.81.68-1.48,1.79-2.01,3.32-.16.81-.44,2.03-.83,3.65l-9.22-5.53c.03-.07-.03-.2,0-.27.14-.33.39-.77.54-1.08.14-.3.39-.53.54-.81.63-1.12,1.1-1.94,1.9-2.71,2.45-2.3,6.52-4.02,11.91-4.6,4.59-.49,10.94-.81,18.95-.81,5.49,0,9.31.14,11.37.27,5.12.34,8.72,1.16,10.56,2.44.23.17.61.34.81.54,1.78,1.74,2.35,4.8,1.9,8.66Z"/>
            <path class="cls-6" d="m424.89,63.37c-.06.52-.17,1.02-.27,1.62-.02.1-.22,1.38-.27,1.62-.17.78-.75,2.75-.81,2.98-.13.45-.39.95-.54,1.35-.75,2.05-1.38,3.5-2.44,4.6-2.72,2.92-8.9,5.07-17.6,5.69-1.96.14-7.84,0-17.6,0-7.52,0-12.74-.2-15.97-1.08-4.22-1.2-6.5-4.35-6.23-8.66.02-.31.32-.92.32-.92l11.5-5.75h0c-.33,1.23-.59,3.12-.78,5.66.13,1.59.91,2.55,2.34,2.88,1.59.39,7.18.58,16.78.58l7.75.2c8.42,0,13.09-2.08,14-6.25.62-2.79.01-4.47-1.8-5.02-.65-.19-1.84-.34-3.59-.45-2.45-.15-5.98-.23-10.6-.23h-2.34l9.18-6.71-.03-.03,11.92-.55h0c4.09.09,5.64,2.18,5.71,2.26.13.16.43.63.54.81.35.53.66,1.21.81,1.9.05.23,0,1.27,0,1.35.02.64.1,1.34,0,2.17Z"/>
            <path class="cls-44" d="m370.35,39.72c-.06.15-.12.31-.18.47-.13.34-.25.69-.37,1.06-.12.37-.23.74-.34,1.13-.07.26-.14.52-.21.79-.14.54-.26,1.09-.38,1.67l-.11.51h10.67l-9.07-5.62Zm35.55,15.71l-5.75-7.6-3.4,14.34,9.18-6.71-.03-.03Zm-42.41,15.13l11.5-5.75h-10.58c-.45,2.29-.75,4.21-.91,5.75Z"/>
            <path class="cls-10" d="m439.52,40.03c-.98,4.49-2.39,7.76-4.24,9.8-2.11,2.31-5.36,3.89-9.75,4.74,2.95.74,5.05,1.46,6.29,2.14,2.02,1.23,3.12,3.2,3.32,5.9.09,1.89-.21,4.47-.93,7.75-1.21,5.56-2.93,9.51-5.17,11.86-3.61,3.87-11.19,6.21-22.73,7.02-2.6.19-10.37.29-23.31.29-9.98,0-17.12-.58-21.42-1.76-5.59-1.59-8.21-5.25-7.85-10.98.19-2.83.84-6.82,1.95-11.99h0s8.73,0,8.73,0c-.45,2.29-.75,4.21-.91,5.75h0c-.04.36-.07.69-.09,1.01-.27,4.32,1.7,7.07,5.92,8.27,3.24.88,8.62,1.32,16.14,1.32,9.76,0,15.62-.08,17.58-.22,8.7-.61,14.41-2.38,17.13-5.3,1.06-1.1,1.96-2.68,2.71-4.73.15-.41.3-.84.43-1.29.07-.23.14-.45.2-.69.2-.7.38-1.44.55-2.23.05-.24.1-.49.15-.72.05-.23.09-.46.13-.69.02-.1.04-.2.06-.3.1-.6.19-1.16.25-1.68.1-.83.14-1.56.12-2.2,0-.09,0-.17,0-.25-.01-.13-.02-.25-.04-.37-.03-.24-.07-.48-.12-.71-.15-.69-.4-1.3-.74-1.82-.11-.18-.24-.35-.37-.51-.07-.08-.14-.17-.21-.24-.3-.3-.63-.57-1.01-.8-.12-.07-.25-.13-.39-.19-.2-.1-.42-.19-.68-.29-.08-.04-.17-.07-.26-.1-.18-.07-.36-.14-.56-.2-.72-.25-1.57-.5-2.56-.75h0c-.09-.03-.19-.05-.29-.08,3.31-.64,5.76-1.82,7.35-3.57.35-.39.67-.83.98-1.33.15-.25.3-.52.45-.79.09-.18.18-.36.26-.54.35-.74.66-1.58.93-2.5.21-.69.4-1.43.57-2.23.19-.88.33-1.71.42-2.5.46-3.86-.2-6.68-1.98-8.42-.2-.2-.41-.38-.64-.55-1.84-1.27-5.32-2.08-10.44-2.43-2.06-.13-5.84-.19-11.33-.19-8.02,0-14.32.25-18.9.74-5.39.58-9.32,2.03-11.76,4.34-.79.77-1.5,1.73-2.13,2.85-.15.29-.31.58-.45.88-.15.31-.29.62-.42.95-.03.07-.05.13-.08.2-.06.15-.12.31-.18.47-.13.34-.25.69-.37,1.06-.12.37-.23.74-.34,1.13-.07.26-.14.52-.21.79-.13.54-.26,1.09-.37,1.67l-.11.51h-8.65l.88-4c1.23-6.11,3.25-10.54,6.05-13.27,3.25-3.06,8.46-4.98,15.61-5.75,6.08-.65,14.44-.98,25.07-.98,7.28,0,12.29.08,15.02.24,6.8.46,11.42,1.53,13.85,3.22,3.54,2.64,4.52,7.71,2.93,15.22Z"/>
            <polygon class="cls-23" points="379.42 45.35 360.11 45.35 370.35 39.72 379.42 45.35"/>
            <polygon class="cls-33" points="374.98 64.81 363.48 70.56 363.48 70.57 363.48 70.57 355.67 64.82 355.67 64.81 374.98 64.81"/>
            <polygon class="cls-43" points="405.92 55.47 396.75 62.18 400.14 47.83 405.9 55.43 405.92 55.47"/>
          </g>
          <g>
            <path class="cls-31" d="m451.49,73.72s0,.01,0,.02"/>
            <path class="cls-24" d="m497.74,49.13c-2.56-3.38-6.64-4.47-9.1-5.13-.27-.07-.51-.14-.73-.2-3-.85-7.6-.62-16.77-.18-4.13.2-5.89.37-7.96,1.38-3.15,1.54-5.31,3.75-6.42,6.57-1.18,3.01-1.44,7.27.64,10,2.84,3.74,10.01,3.65,23.02,3.49,7.47-.09,9.94-.04,12.28,1.6,4.25,2.99,3.45,7.58,2.03,10.89-1.77,4.14-6.26,5.5-9.87,6.6-2.76.84-6.22.96-12.93.93-1.6,0-2.94-.19-4.65-.42-1.3-.18-2.78-.37-4.69-.54-3.99-.34-5.52-.83-7.69-1.61-1.51-.54-2.15-1.82-2.66-2.85-.09-.18-.18-.35-.26-.51l7.51-4.74-.33-.52-7.6,4.8-8.66-4.84-.3.53,8.74,4.89c.11.19.23.42.34.66.53,1.07,1.26,2.53,3,3.16,2.21.79,3.78,1.29,7.84,1.64,1.9.16,3.36.36,4.66.53,1.73.23,3.09.42,4.72.42.63,0,1.24,0,1.82,0,5.61,0,8.73-.18,11.3-.96,3.73-1.13,8.37-2.54,10.25-6.94,1.51-3.53,2.35-8.41-2.24-11.63-2.61-1.83-5.54-1.8-12.64-1.71-13.77.17-19.97.1-22.52-3.25-2.21-2.91-1.39-7.28-.55-9.41,1.05-2.68,3.11-4.78,6.12-6.25,1.98-.96,3.6-1.12,7.72-1.32,9.1-.45,13.67-.67,16.57.15.22.06.47.13.74.2,2.35.62,6.22,1.66,8.66,4.77l-5.83,4.8.39.47,5.92-4.88,10.3,4.84.26-.55-10.45-4.91Z"/>
            <path class="cls-49" d="m504.58,61.44c-2.64-1.79-6.95-2.71-12.93-2.78-12.94-.03-20.94-.17-24-.39-2.83-.19-4.02-1.25-3.56-3.17.35-1.85,2.7-3.06,7.02-3.61,1.72-.16,4.47-.24,8.24-.24,5.85,0,9.46.46,10.83,1.37.39.36.63,1.1.73,2.24h9.18c-.47-1.65-1.48-4.22-3.46-6.32-4.34-4.64-10.67-4.79-17.04-4.85-8.97-.08-17.47-.15-21.35,5.71-2.39,3.62-2.88,9.29-.29,12.44,2.13,2.59,5.98,2.71,13.66,2.94,4.15.13,6.67-.16,13.59.15,4.11.18,6.81.44,8.73,2.48,1.62,1.73,1.9,3.88,1.99,4.56.52,3.96-1.8,6.96-2.3,7.62-2.62,3.4-6.46,4.28-10.07,5.1-3.22.74-5.68.71-9.92.65-1.81-.03-5.2-.14-9.64-.79-6.56-.96-9.88-1.49-11.5-3.74-.61-.84-1.81-2.96-1.01-7.08h-9.43c-1.1,5.4-.33,9.33,2.34,11.8,2.02,2.05,5.87,3.37,11.56,3.95,2.6.26,7.31.39,14.14.39,13.33,0,22.34-.93,27.02-2.78,5.3-2.11,8.72-6.68,10.24-13.7,1.2-5.66.28-9.64-2.78-11.95Z"/>
            <path class="cls-37" d="m508.92,54.86h-8.82c-.47-1.65-1.48-4.22-3.46-6.32-4.34-4.64-10.67-4.79-17.04-4.85-8.97-.08-17.47-.15-21.35,5.71-2.39,3.62-2.88,9.29-.29,12.44,2.13,2.59,5.98,2.71,13.66,2.94,4.15.13,6.67-.16,13.59.15,4.11.18,6.81.44,8.73,2.48,1.62,1.73,1.9,3.88,1.99,4.56.52,3.96-1.8,6.96-2.3,7.62-2.62,3.4-6.46,4.28-10.07,5.1-3.22.74-5.68.71-9.92.65-1.81-.03-5.2-.14-9.64-.79-6.56-.96-9.88-1.49-11.5-3.74-.61-.84-1.81-2.96-1.01-7.08h8.57c-.36,2.63,1.32,4.26,5.03,4.88,1.23.26,4.11.39,8.63.39,4.26,0,7.12-.08,8.58-.25,4.23-.52,6.6-1.89,7.12-4.1.45-2.18-1.82-3.49-6.83-3.95h-9.9c-7.97.2-13.35.08-16.15-.34-4.49-.62-7.53-1.95-9.12-4-1.85-2.28-2.26-5.64-1.22-10.1,1.43-6.86,4.98-11.39,10.63-13.6,4.33-1.59,12.79-2.39,25.41-2.39,6.47,0,10.94.12,13.41.34,5.73.65,9.61,1.98,11.66,4,1.76,1.86,2.29,5.27,1.61,10.25Z"/>
            <polygon class="cls-7" points="508.92 54.86 490.91 54.85 497.44 49.47 508.92 54.86"/>
            <polygon class="cls-41" points="442.05 73.74 460.05 73.73 451.61 79.03 442.05 73.74"/>
          </g>
        </g>
        <g>
          <path class="cls-38" d="m350.98,110.17c0,1.92-.65,3.55-1.94,4.88-1.29,1.34-3.04,2.19-5.24,2.55v.08c1.62.31,2.87.99,3.75,2.04s1.31,2.36,1.31,3.93c0,1.71-.45,3.22-1.35,4.52-.9,1.3-2.21,2.3-3.92,3.01-1.71.71-3.79,1.06-6.23,1.06-2.73,0-5.22-.53-7.47-1.58l1.06-4.94c.93.58,1.93,1.03,3.02,1.36,1.09.33,2.17.49,3.23.49,1.75,0,3.11-.35,4.09-1.06.98-.71,1.47-1.71,1.47-3.01,0-2.39-1.79-3.59-5.37-3.59h-2.37l.98-4.67h2.93c1.84,0,3.29-.35,4.34-1.06,1.06-.71,1.58-1.7,1.58-2.97,0-.95-.34-1.68-1.02-2.18-.68-.5-1.63-.75-2.86-.75-1.93,0-3.89.46-5.89,1.39l1.06-4.94c2.29-.73,4.56-1.1,6.81-1.1,2.51,0,4.47.58,5.89,1.75,1.41,1.17,2.12,2.77,2.12,4.82Z"/>
          <path class="cls-38" d="m382.13,129.38c-.36,1.72-.84,3.3-1.45,4.73-.6,1.43-1.42,2.66-2.45,3.68-1.03,1.02-2.32,1.82-3.88,2.39-1.56.57-3.47.86-5.73.86-1.25,0-2.4-.13-3.45-.4-1.06-.27-2.04-.61-2.95-1.05l1.08-4.9c.81.54,1.7.98,2.66,1.33.96.35,1.98.52,3.05.52,1,0,1.88-.13,2.64-.4.75-.27,1.4-.67,1.95-1.2.55-.53,1-1.18,1.36-1.96.36-.78.65-1.68.87-2.69l.35-1.74h-.08c-.33.5-.7.97-1.1,1.42s-.84.83-1.32,1.17c-.48.34-1.02.6-1.6.8-.58.2-1.24.3-1.98.3-1,0-1.88-.18-2.64-.55-.75-.37-1.38-.88-1.89-1.53-.51-.66-.89-1.44-1.15-2.36-.26-.91-.39-1.92-.39-3.03s.12-2.2.36-3.29c.24-1.09.59-2.12,1.07-3.11.48-.98,1.07-1.9,1.79-2.73.72-.84,1.56-1.56,2.52-2.17.96-.61,2.04-1.09,3.23-1.44,1.2-.35,2.52-.52,3.96-.52.8,0,1.59.03,2.38.09.79.06,1.56.13,2.32.23.75.1,1.47.21,2.15.33.68.12,1.31.24,1.89.36l-3.57,16.87Zm-4.31-13.54c-.39-.03-.81-.05-1.24-.05-.89,0-1.72.22-2.5.66-.78.44-1.46,1.04-2.04,1.79-.58.76-1.04,1.65-1.37,2.68-.33,1.03-.5,2.14-.5,3.32,0,.48.05.92.15,1.32.1.4.25.76.45,1.05.21.29.46.53.76.69.3.17.65.25,1.05.25.51,0,.99-.1,1.42-.31.43-.2.82-.48,1.18-.84.35-.35.67-.76.95-1.22s.52-.95.74-1.47c.22-.52.41-1.04.57-1.57.16-.53.29-1.03.4-1.5l1.02-4.67c-.3-.07-.64-.11-1.03-.15Z"/>
          <path class="cls-38" d="m396.61,131.58c-.23.07-.5.13-.8.19-.3.07-.62.13-.97.18-.34.06-.69.1-1.06.14-.37.03-.73.05-1.09.05-.86,0-1.6-.11-2.21-.34s-1.12-.54-1.52-.95c-.4-.4-.69-.89-.88-1.45-.19-.56-.28-1.17-.28-1.84,0-.28.02-.6.05-.94.03-.35.07-.71.13-1.09.05-.38.11-.76.18-1.16s.15-.77.22-1.13c.05-.22.14-.62.26-1.21.12-.58.26-1.26.42-2.02s.33-1.56.51-2.4c.18-.84.35-1.64.51-2.4.16-.76.3-1.43.42-2.02.12-.58.21-.99.26-1.21h6.18l-2.36,11.12c-.1.45-.21.96-.33,1.51s-.17,1.05-.17,1.46c0,.49.15.83.46,1.02.31.19.66.29,1.06.29.33,0,.67-.04,1.01-.11.34-.07.65-.16.94-.28-.17.77-.33,1.54-.48,2.29-.15.75-.32,1.51-.48,2.29Zm2.01-25.96c0,.5-.1.95-.29,1.35-.19.4-.45.74-.78,1.03-.33.29-.71.51-1.16.67-.44.15-.92.23-1.44.23s-.94-.07-1.36-.22c-.42-.15-.78-.35-1.08-.62-.3-.27-.54-.58-.71-.94-.17-.36-.26-.75-.26-1.18,0-.5.09-.95.28-1.35.19-.4.44-.74.77-1.03.33-.29.72-.51,1.17-.66.45-.16.94-.23,1.47-.23.49,0,.94.07,1.35.22.41.15.77.35,1.07.62.3.26.54.57.71.94.17.36.26.75.26,1.18Z"/>
          <path class="cls-38" d="m418.98,125.23c-.09.4-.18.88-.26,1.45-.08.57-.16,1.16-.23,1.77-.07.61-.13,1.21-.17,1.79-.05.58-.07,1.09-.07,1.51h-6.18c0-.19,0-.44.03-.74.02-.3.04-.61.07-.93.03-.31.05-.62.09-.93.03-.3.06-.56.09-.76h-.08c-.37.5-.76.98-1.16,1.45s-.84.87-1.33,1.22c-.49.36-1.03.64-1.63.85-.6.21-1.29.32-2.07.32-.97,0-1.82-.17-2.58-.52-.75-.35-1.39-.85-1.9-1.51-.52-.66-.91-1.46-1.18-2.4-.27-.95-.41-2.02-.41-3.21,0-.6.07-1.35.2-2.23.13-.88.38-1.81.73-2.78.35-.97.85-1.94,1.48-2.9.63-.96,1.44-1.82,2.42-2.6.98-.77,2.18-1.4,3.57-1.87,1.4-.48,3.04-.72,4.93-.72.73,0,1.47.03,2.21.09.74.06,1.47.13,2.18.23s1.41.21,2.08.34c.67.13,1.29.26,1.87.39l-2.7,12.68Zm-2.88-16.37l-2.24-3.67-3.8,3.67h-4.07l5.85-6.31h4.83l3.24,6.31h-3.8Zm-2.26,6.98c-.36-.03-.7-.05-1.02-.05-.89,0-1.67.15-2.34.44s-1.25.68-1.75,1.16c-.5.48-.91,1.02-1.25,1.62-.33.61-.6,1.22-.8,1.84-.2.62-.34,1.23-.43,1.82-.08.59-.13,1.11-.13,1.56,0,.48.05.92.15,1.32.1.4.25.76.45,1.05.21.29.46.53.76.69.3.17.65.25,1.05.25.73,0,1.39-.21,1.96-.64.57-.42,1.07-.97,1.51-1.63s.79-1.41,1.08-2.24c.29-.83.52-1.65.7-2.46l1.02-4.61c-.3-.07-.62-.11-.98-.15Z"/>
          <path class="cls-38" d="m432.9,133.49c-.66,1.14-1.33,2.18-2.04,3.12-.7.93-1.46,1.73-2.29,2.38s-1.73,1.16-2.73,1.51c-1,.36-2.13.53-3.39.53-.44,0-.96-.04-1.57-.13s-1.18-.22-1.71-.41l1.04-4.71c.27.19.6.34,1,.44.4.1.8.16,1.2.16.76,0,1.47-.18,2.12-.53.66-.36,1.23-.93,1.72-1.73l1.58-2.49-3.84-19.65h6.41l1.39,12.02c.04.44.06.91.08,1.41.01.5,0,.91-.04,1.24h.08c.12-.32.26-.72.44-1.2.18-.48.4-.96.66-1.45l6.04-12.02h6.41l-12.57,21.5Z"/>
        </g>
      </g>
      <g>
        <g>
          <path class="cls-42" d="m103.08,56.48c-.81,5.69-3.11,11.12-5.71,16.22-2.56,5.04-5.71,9.74-9.28,14.12-.5.63-1.12.82-1.71.69-.06-.1-.14-.19-.22-.29-.26-.33-.55-.63-.82-.94-.26-.27-.52-.53-.79-.76-.09-.58.04-1.2.49-1.76,3.79-4.65,6.99-9.77,9.55-15.19,2.25-4.75,3.98-9.62,4.5-14.88.26-2.72.01-5.42.19-8.13.13-2.22.09-4.34-.36-6.51-1.83-8.9-7.41-17.07-13.7-23.44-1.34-1.34-.35-3.2,1.05-3.62.17-.06.35-.09.53-.09.5,0,1.01.19,1.47.65,3.92,3.96,7.38,8.49,10.1,13.36,2.51,4.47,4.47,9.32,5.11,14.42.33,2.59,0,5.16.14,7.77.16,2.78-.16,5.6-.55,8.37Z"/>
          <g>
            <path class="cls-26" d="m109.92,50.59c-.02-.22-.04-.44-.06-.66.02.22.04.44.06.66Z"/>
            <path class="cls-26" d="m109.97,51.31c-.02-.24-.03-.48-.05-.72.02.24.04.48.05.72Z"/>
            <path class="cls-26" d="m110.05,52.73c-.02-.48-.04-.95-.07-1.43.03.47.06.95.07,1.43Z"/>
            <path class="cls-19" d="m102.23,48.7c0,14.88-5.16,27.48-16.89,37.59-.26-.27-.52-.53-.79-.76-4.42-3.98-9.9-4.05-10.72-4.05,2.42-1.43,20.96-12.85,22.75-32.59C98.5,27.81,80.61,5.19,52.71.09c2.88-.16,7.54-.2,13.07.78.01,0,.01.01.01.01,2.95.58,5.82,1.4,8.59,2.44,4.7,2.35,8.85,5.24,12.42,8.6,9.97,9.34,15.43,22.23,15.43,36.78Z"/>
            <path class="cls-27" d="m110.08,54.06v.81c0,.33,0,.66-.01.99,0,.14,0,.3-.01.46,0,.3-.01.62-.03.94v.13c-.01.24-.03.5-.06.76-.01.3-.03.59-.06.89,0,.06-.01.12-.01.17s-.01.13-.01.19c-.01.1-.01.22-.03.32-2.1,22.48-17.89,36.01-20.27,37.98.04-1.27.09-5.94-3.2-10.19-.06-.1-.14-.19-.22-.29-.26-.33-.55-.63-.82-.94,9.97-9.32,16.21-22.71,16.21-37.59s-5.86-27.42-15.29-36.7c-3.5-3.46-7.51-6.38-11.89-8.69,20.23,7.59,34.8,26.74,35.66,49.42.01.22.01.43.03.66v.1c0,.19,0,.37.01.56Z"/>
          </g>
        </g>
        <g>
          <path class="cls-29" d="m84.53,97.08c-7.06,4.13-14.96,6.58-23.38,6.58-14.19,0-27.75-6.26-36.32-16.03,18.13,6.12,40.81-7.94,55.4,3.87.95.77,3.66,2.96,4.31,5.58Z"/>
          <path class="cls-13" d="m84.64,98.74c-.2,1.51-1.22,2.95-2.89,4.26-4.79,2.66-10,4.63-15.53,5.77,0,0-.02,0-.02,0-8.87,1.87-15.88,1.21-20.35.36C20.89,104.44-.48,80.27,0,57.52c.08-3.87.78-6.98,1.28-8.81,0,28.37,13.59,34.87,21.93,38.32.53.22,1.07.42,1.61.6,9.29,9.32,22.13,15.08,36.32,15.08,8.42,0,16.37-2.03,23.38-5.63.13.54.18,1.09.11,1.66Z"/>
        </g>
        <g>
          <path class="cls-12" d="m73.95,16.73c-15.16-8.37-33.97-4.17-46.42,6.98-13.76,12.31-21.13,33.96-11.6,50.71-.76-.63-4.43-4.99-7.29-12.14-1.62-5.69-2.17-7.98-2.17-12.22C6.47,24.22,24.7,6.53,50,6.53c6.6,0,10.07.54,18.44,4.54,3.21,2.56,5.03,4.89,5.51,5.67Z"/>
          <path class="cls-17" d="m68.44,11.07c-5.59-2.65-11.84-4.13-18.44-4.13C26.18,6.94,6.88,26.24,6.88,50.06c0,4.25.61,8.35,1.76,12.22-2.32-5.82-4.11-13.48-3.33-22.48,1.39-16.08,12.51-25.44,14.62-27.15.23-.23.81-.78,1.69-1.52.01,0,.02-.02.04-.03,2.42-1.84,4.99-3.5,7.7-4.93.01,0,.03-.02.04-.02,5.09-2.46,11.97-4.4,20.07-3.21,8.64,1.28,14.91,4.88,18.97,8.12Z"/>
        </g>
        <path class="cls-22" d="m67.79,38.72s-.02.01-.04.02v-.02s.04,0,.04,0Z"/>
        <path class="cls-15" d="m67.79,38.72s-.02.01-.04.02v-.02s.04,0,.04,0Z"/>
        <path class="cls-39" d="m67.79,38.72s-.02.01-.04.02v-.02s.04,0,.04,0Z"/>
        <g>
          <circle class="cls-2" cx="65.92" cy="29.64" r="6.61"/>
          <g>
            <path class="cls-3" d="m66.04,31.49l-.42-.84h-3.28l-.42.84h-1.73l2.63-4.95h2.34l2.59,4.95h-1.71Zm-.96-1.92l-.95-1.88h-.3s-.95,1.88-.95,1.88h2.21Z"/>
            <path class="cls-3" d="m68.98,26.54h1.59v4.95h-1.59v-4.95Z"/>
          </g>
        </g>
        <path class="cls-28" d="m67.79,38.72s-.02.01-.04.02v-.02s.04,0,.04,0Z"/>
        <g>
          <path class="cls-14" d="m65.77,65.13l-.02.05c0-4.69.02-9.39.03-14.08v6s.05,4.33,0,8.03Z"/>
          <path class="cls-9" d="m66.59,51.15c-.01,4.69,0,9.45,0,14.15l-.27.54c-.03,1.15-.19,1.55-.27,2.18-.27,2.08-.96,3.82-1.9,4.9-.18.21-.6.36-.82.54-1.3,1.1-3.59,1.83-6.26,2.18-1.38.18-3.83.27-7.35.27-5.23,0-9.09-.26-11.43-.82-2.84-.68-4.6-2.72-5.17-5.44-.21-.99-.1-2.17-.14-3.64h0c0-.32-.01-.65-.01-.99h6.98c.18,1.49.48,2.45.91,2.86.98.96,3.74,1.44,8.28,1.44s7.7-.49,8.86-1.48c.81-.7,1.22-2.6,1.22-5.68v-25.9h0c.12,0,.23,0,.35,0,.04.08.07.17.12.25.79,1.61,2.19,2.87,3.9,3.47.68.24,1.41.38,2.16.4l.84,1.51c0,3.04,0,6.21,0,9.25Z"/>
          <path class="cls-20" d="m72.58,36.27v26.19c0,3.4-.1,5.83-.29,7.29-.39,2.93-1.24,5.16-2.57,6.67-1.75,2.03-4.84,3.34-9.24,3.92-1.95.26-5.4.38-10.37.38-7.38,0-12.72-.39-16.02-1.19-4-.96-6.41-3.36-7.22-7.19-.36-1.71-.55-3.92-.55-6.61,0-.23,0-.46,0-.71h6.64c0,.34,0,.67.01.98h0c.04,1.47.16,2.7.38,3.69.57,2.72,2.28,4.42,5.12,5.1,2.34.56,6.12.84,11.36.84,3.52,0,5.97-.09,7.35-.27,2.67-.35,4.66-1.08,5.96-2.18.22-.19.42-.39.6-.59.94-1.07,1.55-2.65,1.82-4.73.08-.63.14-1.52.17-2.67h0s.02-.05.02-.05c.05-3.69,0-8.03,0-8.03v-6c0-3.04,0-6.08-.01-9.13v-1.59c.05,0,.1,0,.16,0,.54,0,1.06-.06,1.56-.18.51-.11.99-.29,1.45-.5,1.4-.68,2.54-1.81,3.22-3.21.04-.07.07-.15.1-.22h.33Z"/>
          <polygon class="cls-40" points="33.4 69.92 39.78 65.03 26.33 65.03 33.4 69.92"/>
        </g>
      </g>
    </g>
  </g>
</svg>